<?xml version="1.0" encoding="UTF-8" standalone="no" ?>
<COLLADA xmlns="http://www.collada.org/2005/11/COLLADASchema" version="1.4.1">
  <asset>
    <contributor>
      <author>Assimp</author>
      <authoring_tool>Assimp Exporter</authoring_tool>
    </contributor>
    <created>2026-09-08T09:43:03</created>
    <modified>2026-09-08T09:43:03</modified>
    <unit name="meter" meter="1" />
    <up_axis>Y_UP</up_axis>
  </asset>
  <library_images>
  </library_images>
  <library_effects>
    <effect id="DefaultMaterial-fx" name="DefaultMaterial">
      <profile_COMMON>
        <technique sid="standard">
          <phong>
            <emission>
              <color sid="emission">0   0   0   1</color>
            </emission>
            <ambient>
              <color sid="ambient">0   0   0   1</color>
            </ambient>
            <diffuse>
              <color sid="diffuse">0.600000024   0.600000024   0.600000024   1</color>
            </diffuse>
            <specular>
              <color sid="specular">0   0   0   1</color>
            </specular>
            <shininess>
              <float sid="shininess">0</float>
            </shininess>
            <transparent>
              <color sid="transparent">1   1   1   1</color>
            </transparent>
            <transparency>
              <float sid="transparency">1</float>
            </transparency>
            <index_of_refraction>
              <float sid="index_of_refraction">1</float>
            </index_of_refraction>
          </phong>
        </technique>
      </profile_COMMON>
    </effect>
    <effect id="leafsGreen-fx" name="leafsGreen">
      <profile_COMMON>
        <technique sid="standard">
          <phong>
            <emission>
              <color sid="emission">0   0   0   1</color>
            </emission>
            <ambient>
              <color sid="ambient">0   0   0   1</color>
            </ambient>
            <diffuse>
              <color sid="diffuse">0.160784304   0.788235307   0.670588315   1</color>
            </diffuse>
            <specular>
              <color sid="specular">0   0   0   1</color>
            </specular>
            <shininess>
              <float sid="shininess">0</float>
            </shininess>
            <transparent>
              <color sid="transparent">1   1   1   1</color>
            </transparent>
            <transparency>
              <float sid="transparency">1</float>
            </transparency>
            <index_of_refraction>
              <float sid="index_of_refraction">1</float>
            </index_of_refraction>
          </phong>
        </technique>
      </profile_COMMON>
    </effect>
    <effect id="woodBark-fx" name="woodBark">
      <profile_COMMON>
        <technique sid="standard">
          <phong>
            <emission>
              <color sid="emission">0   0   0   1</color>
            </emission>
            <ambient>
              <color sid="ambient">0   0   0   1</color>
            </ambient>
            <diffuse>
              <color sid="diffuse">0.886274517   0.513725519   0.34117651   1</color>
            </diffuse>
            <specular>
              <color sid="specular">0   0   0   1</color>
            </specular>
            <shininess>
              <float sid="shininess">0</float>
            </shininess>
            <transparent>
              <color sid="transparent">1   1   1   1</color>
            </transparent>
            <transparency>
              <float sid="transparency">1</float>
            </transparency>
            <index_of_refraction>
              <float sid="index_of_refraction">1</float>
            </index_of_refraction>
          </phong>
        </technique>
      </profile_COMMON>
    </effect>
  </library_effects>
  <library_materials>
    <material id="DefaultMaterial" name="DefaultMaterial">
      <instance_effect url="#DefaultMaterial-fx"/>
    </material>
    <material id="leafsGreen" name="leafsGreen">
      <instance_effect url="#leafsGreen-fx"/>
    </material>
    <material id="woodBark" name="woodBark">
      <instance_effect url="#woodBark-fx"/>
    </material>
  </library_materials>
  <library_geometries>
    <geometry id="tree_oak_1" name="tree_oak" >
      <mesh>
        <source id="tree_oak_1-positions" name="tree_oak_1-positions">
          <float_array id="tree_oak_1-positions-array" count="576"> 4.76837201e-08 1.11256003 -0.314350396 0.136117801 1.22624004 -0.0785875991 0.272235513 1.11256003 -0.157175198 0.136117801 1.22624004 -0.0785875991 4.76837201e-08 1.11256003 -0.314350396 4.76837201e-08 1.22624004 -0.157175198 0.320277095 0.722800016 0.184911996 0.252186686 0.560400009 -0.145600006 0.320277095 0.722800016 -0.184911996 0.252186686 0.560400009 -0.145600006 0.320277095 0.722800016 0.184911996 0.252186686 0.560400009 0.145600006 0.320277095 0.722800016 0.184911996 4.76837201e-08 0.560400009 0.291200012 0.252186686 0.560400009 0.145600006 4.76837201e-08 0.560400009 0.291200012 0.320277095 0.722800016 0.184911996 4.76837201e-08 0.722800016 0.369823992 -0.252186596 0.560400009 -0.145600006 -0.320276886 0.722800016 0.184911996 -0.320276886 0.722800016 -0.184911996 -0.320276886 0.722800016 0.184911996 -0.252186596 0.560400009 -0.145600006 -0.252186596 0.560400009 0.145600006 4.76837201e-08 1.22624004 -0.157175198 0.136117801 1.22624004 0.0785875991 0.136117801 1.22624004 -0.0785875991 0.136117801 1.22624004 0.0785875991 4.76837201e-08 1.22624004 -0.157175198 4.76837201e-08 1.22624004 0.157175198 4.76837201e-08 1.22624004 0.157175198 4.76837201e-08 1.22624004 -0.157175198 -0.136117697 1.22624004 -0.0785875991 4.76837201e-08 1.22624004 0.157175198 -0.136117697 1.22624004 -0.0785875991 -0.136117697 1.22624004 0.0785875991 -0.320276886 0.722800016 0.184911996 -0.272235394 1.11256003 -0.157175198 -0.320276886 0.722800016 -0.184911996 -0.272235394 1.11256003 -0.157175198 -0.320276886 0.722800016 0.184911996 -0.272235394 1.11256003 0.157175198 0.126093403 0.500400007 0.072800003 0.252186686 0.560400009 -0.145600006 0.252186686 0.560400009 0.145600006 0.252186686 0.560400009 -0.145600006 0.126093403 0.500400007 0.072800003 0.126093403 0.500400007 -0.072800003 -0.136117697 1.22624004 0.0785875991 4.76837201e-08 1.11256003 0.314350396 4.76837201e-08 1.22624004 0.157175198 4.76837201e-08 1.11256003 0.314350396 -0.136117697 1.22624004 0.0785875991 -0.272235394 1.11256003 0.157175198 -0.252186596 0.560400009 0.145600006 -0.126093298 0.500400007 -0.072800003 -0.126093298 0.500400007 0.072800003 -0.126093298 0.500400007 -0.072800003 -0.252186596 0.560400009 0.145600006 -0.252186596 0.560400009 -0.145600006 4.76837201e-08 0.722800016 0.369823992 -0.252186596 0.560400009 0.145600006 4.76837201e-08 0.560400009 0.291200012 -0.252186596 0.560400009 0.145600006 4.76837201e-08 0.722800016 0.369823992 -0.320276886 0.722800016 0.184911996 4.76837201e-08 0.560400009 0.291200012 0.126093403 0.500400007 0.072800003 0.252186686 0.560400009 0.145600006 0.126093403 0.500400007 0.072800003 4.76837201e-08 0.560400009 0.291200012 4.76837201e-08 0.500400007 0.145600006 -0.252186596 0.560400009 0.145600006 4.76837201e-08 0.500400007 0.145600006 4.76837201e-08 0.560400009 0.291200012 4.76837201e-08 0.500400007 0.145600006 -0.252186596 0.560400009 0.145600006 -0.126093298 0.500400007 0.072800003 -0.272235394 1.11256003 -0.157175198 4.76837201e-08 1.22624004 -0.157175198 4.76837201e-08 1.11256003 -0.314350396 4.76837201e-08 1.22624004 -0.157175198 -0.272235394 1.11256003 -0.157175198 -0.136117697 1.22624004 -0.0785875991 -0.272235394 1.11256003 -0.157175198 4.76837201e-08 0.722800016 -0.369823992 -0.320276886 0.722800016 -0.184911996 4.76837201e-08 0.722800016 -0.369823992 -0.272235394 1.11256003 -0.157175198 4.76837201e-08 1.11256003 -0.314350396 0.136117801 1.22624004 -0.0785875991 0.272235513 1.11256003 0.157175198 0.272235513 1.11256003 -0.157175198 0.272235513 1.11256003 0.157175198 0.136117801 1.22624004 -0.0785875991 0.136117801 1.22624004 0.0785875991 -0.126093298 0.500400007 -0.072800003 4.76837201e-08 0.560400009 -0.291200012 4.76837201e-08 0.500400007 -0.145600006 4.76837201e-08 0.560400009 -0.291200012 -0.126093298 0.500400007 -0.072800003 -0.252186596 0.560400009 -0.145600006 0.272235513 1.11256003 -0.157175198 0.320277095 0.722800016 0.184911996 0.320277095 0.722800016 -0.184911996 0.320277095 0.722800016 0.184911996 0.272235513 1.11256003 -0.157175198 0.272235513 1.11256003 0.157175198 4.76837201e-08 0.722800016 -0.369823992 0.252186686 0.560400009 -0.145600006 4.76837201e-08 0.560400009 -0.291200012 0.252186686 0.560400009 -0.145600006 4.76837201e-08 0.722800016 -0.369823992 0.320277095 0.722800016 -0.184911996 0.272235513 1.11256003 0.157175198 4.76837201e-08 0.722800016 0.369823992 0.320277095 0.722800016 0.184911996 4.76837201e-08 0.722800016 0.369823992 0.272235513 1.11256003 0.157175198 4.76837201e-08 1.11256003 0.314350396 4.76837201e-08 1.11256003 -0.314350396 0.320277095 0.722800016 -0.184911996 4.76837201e-08 0.722800016 -0.369823992 0.320277095 0.722800016 -0.184911996 4.76837201e-08 1.11256003 -0.314350396 0.272235513 1.11256003 -0.157175198 -0.272235394 1.11256003 -0.157175198 -0.136117697 1.22624004 0.0785875991 -0.136117697 1.22624004 -0.0785875991 -0.136117697 1.22624004 0.0785875991 -0.272235394 1.11256003 -0.157175198 -0.272235394 1.11256003 0.157175198 0.136117801 1.22624004 0.0785875991 4.76837201e-08 1.11256003 0.314350396 0.272235513 1.11256003 0.157175198 4.76837201e-08 1.11256003 0.314350396 0.136117801 1.22624004 0.0785875991 4.76837201e-08 1.22624004 0.157175198 0.126093403 0.500400007 -0.072800003 4.76837201e-08 0.560400009 -0.291200012 0.252186686 0.560400009 -0.145600006 4.76837201e-08 0.560400009 -0.291200012 0.126093403 0.500400007 -0.072800003 4.76837201e-08 0.500400007 -0.145600006 4.76837201e-08 1.11256003 0.314350396 -0.320276886 0.722800016 0.184911996 4.76837201e-08 0.722800016 0.369823992 -0.320276886 0.722800016 0.184911996 4.76837201e-08 1.11256003 0.314350396 -0.272235394 1.11256003 0.157175198 -0.320276886 0.722800016 -0.184911996 4.76837201e-08 0.560400009 -0.291200012 -0.252186596 0.560400009 -0.145600006 4.76837201e-08 0.560400009 -0.291200012 -0.320276886 0.722800016 -0.184911996 4.76837201e-08 0.722800016 -0.369823992 4.76837201e-08 0.500400007 0.145600006 0.126093403 0.500400007 -0.072800003 0.126093403 0.500400007 0.072800003 0.126093403 0.500400007 -0.072800003 4.76837201e-08 0.500400007 0.145600006 0.0403073505 0.500400007 0.0232713893 0.0403073505 0.500400007 0.0232713893 4.76837201e-08 0.500400007 0.145600006 4.76837201e-08 0.500400007 0.046542909 4.76837201e-08 0.500400007 0.046542909 4.76837201e-08 0.500400007 0.145600006 -0.126093298 0.500400007 0.072800003 4.76837201e-08 0.500400007 0.046542909 -0.126093298 0.500400007 0.072800003 -0.040307261 0.500400007 0.0232713893 -0.040307261 0.500400007 0.0232713893 -0.126093298 0.500400007 0.072800003 -0.040307261 0.500400007 -0.0232713893 0.0403073505 0.500400007 -0.0232713893 0.126093403 0.500400007 -0.072800003 0.0403073505 0.500400007 0.0232713893 0.126093403 0.500400007 -0.072800003 0.0403073505 0.500400007 -0.0232713893 4.76837201e-08 0.500400007 -0.145600006 4.76837201e-08 0.500400007 -0.145600006 0.0403073505 0.500400007 -0.0232713893 4.76837201e-08 0.500400007 -0.046542909 4.76837201e-08 0.500400007 -0.145600006 4.76837201e-08 0.500400007 -0.046542909 -0.040307261 0.500400007 -0.0232713893 4.76837201e-08 0.500400007 -0.145600006 -0.040307261 0.500400007 -0.0232713893 -0.126093298 0.500400007 -0.072800003 -0.126093298 0.500400007 -0.072800003 -0.040307261 0.500400007 -0.0232713893 -0.126093298 0.500400007 0.072800003 </float_array>
          <technique_common>
            <accessor count="192" offset="0" source="#tree_oak_1-positions-array" stride="3">
              <param name="X" type="float" />
              <param name="Y" type="float" />
              <param name="Z" type="float" />
            </accessor>
          </technique_common>
        </source>
        <source id="tree_oak_1-normals" name="tree_oak_1-normals">
          <float_array id="tree_oak_1-normals-array" count="576"> 0.320505589 0.767531574 -0.555131972 0.320505589 0.767531574 -0.555131972 0.320505589 0.767531574 -0.555131972 0.320505589 0.767531574 -0.555131972 0.320505589 0.767531574 -0.555131972 0.320505589 0.767531574 -0.555131972 0.922220409 -0.386664689 0 0.922220409 -0.386664689 0 0.922220409 -0.386664689 0 0.922220409 -0.386664689 0 0.922220409 -0.386664689 0 0.922220409 -0.386664689 0 0.461110085 -0.386664599 0.798666298 0.461110085 -0.386664599 0.798666298 0.461110085 -0.386664599 0.798666298 0.461110085 -0.386664599 0.798666298 0.461110085 -0.386664599 0.798666298 0.461110085 -0.386664599 0.798666298 -0.922220409 -0.386664599 0 -0.922220409 -0.386664599 0 -0.922220409 -0.386664599 0 -0.922220409 -0.386664599 0 -0.922220409 -0.386664599 0 -0.922220409 -0.386664599 0 0 1 0 0 1 0 0 1 0 0 1 0 0 1 0 0 1 0 0 1 0 0 1 0 0 1 0 0 1 0 0 1 0 0 1 0 -0.9924891 0.122333497 0 -0.9924891 0.122333497 0 -0.9924891 0.122333497 0 -0.9924891 0.122333497 0 -0.9924891 0.122333497 0 -0.9924891 0.122333497 0 0.429674208 -0.902984023 0 0.429674208 -0.902984023 0 0.429674208 -0.902984023 0 0.429674208 -0.902984023 0 0.429674208 -0.902984023 0 0.429674208 -0.902984023 0 -0.320505589 0.767531574 0.555131972 -0.320505589 0.767531574 0.555131972 -0.320505589 0.767531574 0.555131972 -0.320505589 0.767531574 0.555131972 -0.320505589 0.767531574 0.555131972 -0.320505589 0.767531574 0.555131972 -0.429674089 -0.902984023 0 -0.429674089 -0.902984023 0 -0.429674089 -0.902984023 0 -0.429674089 -0.902984023 0 -0.429674089 -0.902984023 0 -0.429674089 -0.902984023 0 -0.461110085 -0.386664599 0.798666298 -0.461110085 -0.386664599 0.798666298 -0.461110085 -0.386664599 0.798666298 -0.461110085 -0.386664599 0.798666298 -0.461110085 -0.386664599 0.798666298 -0.461110085 -0.386664599 0.798666298 0.214837104 -0.902984023 0.372108698 0.214837104 -0.902984023 0.372108698 0.214837104 -0.902984023 0.372108698 0.214837104 -0.902984023 0.372108698 0.214837104 -0.902984023 0.372108698 0.214837104 -0.902984023 0.372108698 -0.214837104 -0.902984023 0.372108698 -0.214837104 -0.902984023 0.372108698 -0.214837104 -0.902984023 0.372108698 -0.214837104 -0.902984023 0.372108698 -0.214837104 -0.902984023 0.372108698 -0.214837104 -0.902984023 0.372108698 -0.320505589 0.767531574 -0.555131972 -0.320505589 0.767531574 -0.555131972 -0.320505589 0.767531574 -0.555131972 -0.320505589 0.767531574 -0.555131972 -0.320505589 0.767531574 -0.555131972 -0.320505589 0.767531574 -0.555131972 -0.49624449 0.122333601 -0.859520674 -0.49624449 0.122333601 -0.859520674 -0.49624449 0.122333601 -0.859520674 -0.49624449 0.122333601 -0.859520674 -0.49624449 0.122333601 -0.859520674 -0.49624449 0.122333601 -0.859520674 0.641011178 0.767531574 0 0.641011178 0.767531574 0 0.641011178 0.767531574 0 0.641011178 0.767531574 0 0.641011178 0.767531574 0 0.641011178 0.767531574 0 -0.214837104 -0.902984023 -0.372108698 -0.214837104 -0.902984023 -0.372108698 -0.214837104 -0.902984023 -0.372108698 -0.214837104 -0.902984023 -0.372108698 -0.214837104 -0.902984023 -0.372108698 -0.214837104 -0.902984023 -0.372108698 0.9924891 0.122333601 0 0.9924891 0.122333601 0 0.9924891 0.122333601 0 0.9924891 0.122333601 0 0.9924891 0.122333601 0 0.9924891 0.122333601 0 0.461110085 -0.386664599 -0.798666298 0.461110085 -0.386664599 -0.798666298 0.461110085 -0.386664599 -0.798666298 0.461110085 -0.386664599 -0.798666298 0.461110085 -0.386664599 -0.798666298 0.461110085 -0.386664599 -0.798666298 0.49624449 0.122333601 0.859520674 0.49624449 0.122333601 0.859520674 0.49624449 0.122333601 0.859520674 0.49624449 0.122333601 0.859520674 0.49624449 0.122333601 0.859520674 0.49624449 0.122333601 0.859520674 0.49624449 0.122333601 -0.859520674 0.49624449 0.122333601 -0.859520674 0.49624449 0.122333601 -0.859520674 0.49624449 0.122333601 -0.859520674 0.49624449 0.122333601 -0.859520674 0.49624449 0.122333601 -0.859520674 -0.641011119 0.767531574 0 -0.641011119 0.767531574 0 -0.641011119 0.767531574 0 -0.641011119 0.767531574 0 -0.641011119 0.767531574 0 -0.641011119 0.767531574 0 0.320505589 0.767531574 0.555131972 0.320505589 0.767531574 0.555131972 0.320505589 0.767531574 0.555131972 0.320505589 0.767531574 0.555131972 0.320505589 0.767531574 0.555131972 0.320505589 0.767531574 0.555131972 0.214837104 -0.902984023 -0.372108787 0.214837104 -0.902984023 -0.372108787 0.214837104 -0.902984023 -0.372108787 0.214837104 -0.902984023 -0.372108787 0.214837104 -0.902984023 -0.372108787 0.214837104 -0.902984023 -0.372108787 -0.49624449 0.122333497 0.859520674 -0.49624449 0.122333497 0.859520674 -0.49624449 0.122333497 0.859520674 -0.49624449 0.122333497 0.859520674 -0.49624449 0.122333497 0.859520674 -0.49624449 0.122333497 0.859520674 -0.461110085 -0.386664599 -0.798666298 -0.461110085 -0.386664599 -0.798666298 -0.461110085 -0.386664599 -0.798666298 -0.461110085 -0.386664599 -0.798666298 -0.461110085 -0.386664599 -0.798666298 -0.461110085 -0.386664599 -0.798666298 0 -1 0 0 -1 0 0 -1 0 0 -1 0 0 -1 0 0 -1 0 0 -1 0 0 -1 0 0 -1 0 0 -1 0 0 -1 0 0 -1 0 0 -1 0 0 -1 0 0 -1 0 0 -1 0 0 -1 0 0 -1 0 0 -1 0 0 -1 0 0 -1 0 0 -1 0 0 -1 0 0 -1 0 0 -1 0 0 -1 0 0 -1 0 0 -1 0 0 -1 0 0 -1 0 0 -1 0 0 -1 0 0 -1 0 0 -1 0 0 -1 0 0 -1 0 </float_array>
          <technique_common>
            <accessor count="192" offset="0" source="#tree_oak_1-normals-array" stride="3">
              <param name="X" type="float" />
              <param name="Y" type="float" />
              <param name="Z" type="float" />
            </accessor>
          </technique_common>
        </source>
        <source id="tree_oak_1-tex0" name="tree_oak_1-tex0">
          <float_array id="tree_oak_1-tex0-array" count="384"> 6.18799782 19.8509502 -3.09400201 26.8330307 -6.18800116 19.8509502 -3.09400201 26.8330307 6.18799782 19.8509502 3.09399796 26.8330307 -7.28000021 31.1189308 5.73228407 24.1859798 7.28000021 31.1189308 5.73228407 24.1859798 -7.28000021 31.1189308 -5.73228407 24.1859798 7.28000307 31.1189308 -5.73228216 24.1859798 5.73228502 24.1859798 -5.73228216 24.1859798 7.28000307 31.1189308 -7.27999783 31.1189308 -5.73228407 24.1859798 7.28000021 31.1189308 -7.28000021 31.1189308 7.28000021 31.1189308 -5.73228407 24.1859798 5.73228407 24.1859798 -1.87731189e-06 -6.18799877 -5.35896683 3.0940001 -5.35896683 -3.0940001 -5.35896683 3.0940001 -1.87731189e-06 -6.18799877 -1.87731189e-06 6.1880002 -1.87731189e-06 6.1880002 -1.87731189e-06 -6.18799877 5.35896301 -3.0940001 -1.87731189e-06 6.1880002 5.35896301 -3.0940001 5.35896301 3.0940001 7.28000021 26.7004108 -6.18799877 42.1614189 -7.28000021 26.7004108 -6.18799877 42.1614189 7.28000021 26.7004108 6.1880002 42.1614189 -2.86614203 12.9476099 5.73228407 18.4452705 -5.73228407 18.4452705 5.73228407 18.4452705 -2.86614203 12.9476099 2.86614203 12.9476099 -3.09399796 26.8330193 6.18800211 19.8509502 3.09400201 26.8330193 6.18800211 19.8509502 -3.09399796 26.8330193 -6.18799877 19.8509502 5.73228407 18.4452705 -2.86614203 12.9476004 2.86614203 12.9476004 -2.86614203 12.9476004 5.73228407 18.4452705 -5.73228407 18.4452705 7.28000116 31.1189308 -5.73228312 24.1859798 5.73228502 24.1859798 -5.73228312 24.1859798 7.28000116 31.1189308 -7.27999878 31.1189308 -5.73228216 18.4452705 2.86614394 12.9476099 5.73228502 18.4452705 2.86614394 12.9476099 -5.73228216 18.4452705 -2.86613989 12.9476099 -5.73228312 18.4452705 2.86614299 12.9476099 5.73228502 18.4452705 2.86614299 12.9476099 -5.73228312 18.4452705 -2.86614108 12.9476004 6.1880002 19.8509502 -3.09400105 26.8330307 -6.18800116 19.8509502 -3.09400105 26.8330307 6.1880002 19.8509502 3.09399796 26.8330307 6.18799877 42.1614189 -7.28000212 26.7004108 7.27999878 26.7004108 -7.28000212 26.7004108 6.18799877 42.1614189 -6.18800211 42.1614189 3.0940001 26.8330307 -6.1880002 19.8509502 6.18799877 19.8509502 -6.1880002 19.8509502 3.0940001 26.8330307 -3.0940001 26.8330307 2.86614108 12.9476004 -5.73228502 18.4452705 -2.86614299 12.9476099 -5.73228502 18.4452705 2.86614108 12.9476004 5.73228312 18.4452705 6.18799877 42.1614189 -7.28000021 26.7004108 7.28000021 26.7004108 -7.28000021 26.7004108 6.18799877 42.1614189 -6.1880002 42.1614189 7.27999783 31.1189308 -5.73228502 24.1859798 5.73228216 24.1859798 -5.73228502 24.1859798 7.27999783 31.1189308 -7.28000307 31.1189308 6.18800116 42.1614189 -7.27999783 26.7004108 7.28000307 26.7004108 -7.27999783 26.7004108 6.18800116 42.1614189 -6.18799782 42.1614189 6.18799782 42.1614189 -7.28000212 26.7004108 7.27999878 26.7004108 -7.28000212 26.7004108 6.18799782 42.1614189 -6.18800116 42.1614189 -6.18799877 19.8509407 3.0940001 26.8330193 -3.0940001 26.8330193 3.0940001 26.8330193 -6.18799877 19.8509407 6.1880002 19.8509407 3.09400201 26.8330193 -6.18799782 19.8509502 6.18800116 19.8509502 -6.18799782 19.8509502 3.09400201 26.8330193 -3.09399891 26.8330193 -2.86614394 12.9476099 5.73228121 18.4452705 -5.73228502 18.4452705 5.73228121 18.4452705 -2.86614394 12.9476099 2.86613989 12.9476099 6.18800116 42.1614189 -7.27999878 26.7004108 7.28000116 26.7004108 -7.27999878 26.7004108 6.18800116 42.1614189 -6.18799877 42.1614189 7.28000021 31.1189308 -5.73228502 24.1859798 5.73228312 24.1859798 -5.73228502 24.1859798 7.28000021 31.1189308 -7.28000116 31.1189308 1.87731189e-06 5.73228407 4.96430588 -2.86614203 4.96430588 2.86614203 4.96430588 -2.86614203 1.87731189e-06 5.73228407 1.58690405 0.916196585 1.58690405 0.916196585 1.87731189e-06 5.73228407 1.87731189e-06 1.83239794 1.87731189e-06 1.83239794 1.87731189e-06 5.73228407 -4.96430206 2.86614203 1.87731189e-06 1.83239794 -4.96430206 2.86614203 -1.5869 0.916196585 -1.5869 0.916196585 -4.96430206 2.86614203 -1.5869 -0.916196585 1.58690405 -0.916196585 4.96430588 -2.86614203 1.58690405 0.916196585 4.96430588 -2.86614203 1.58690405 -0.916196585 1.87731189e-06 -5.73228407 1.87731189e-06 -5.73228407 1.58690405 -0.916196585 1.87731189e-06 -1.83239794 1.87731189e-06 -5.73228407 1.87731189e-06 -1.83239794 -1.5869 -0.916196585 1.87731189e-06 -5.73228407 -1.5869 -0.916196585 -4.96430206 -2.86614203 -4.96430206 -2.86614203 -1.5869 -0.916196585 -4.96430206 2.86614203 </float_array>
          <technique_common>
            <accessor count="192" offset="0" source="#tree_oak_1-tex0-array" stride="2">
              <param name="S" type="float" />
              <param name="T" type="float" />
            </accessor>
          </technique_common>
        </source>
        <vertices id="tree_oak_1-vertices">
          <input semantic="POSITION" source="#tree_oak_1-positions" />
        </vertices>
        <polylist count="64" material="defaultMaterial">
          <input offset="0" semantic="VERTEX" source="#tree_oak_1-vertices" />
          <input offset="0" semantic="NORMAL" source="#tree_oak_1-normals" />
          <input offset="0" semantic="TEXCOORD" source="#tree_oak_1-tex0" set="0" />
          <vcount>3 3 3 3 3 3 3 3 3 3 3 3 3 3 3 3 3 3 3 3 3 3 3 3 3 3 3 3 3 3 3 3 3 3 3 3 3 3 3 3 3 3 3 3 3 3 3 3 3 3 3 3 3 3 3 3 3 3 3 3 3 3 3 3 </vcount>
          <p>0 1 2 3 4 5 6 7 8 9 10 11 12 13 14 15 16 17 18 19 20 21 22 23 24 25 26 27 28 29 30 31 32 33 34 35 36 37 38 39 40 41 42 43 44 45 46 47 48 49 50 51 52 53 54 55 56 57 58 59 60 61 62 63 64 65 66 67 68 69 70 71 72 73 74 75 76 77 78 79 80 81 82 83 84 85 86 87 88 89 90 91 92 93 94 95 96 97 98 99 100 101 102 103 104 105 106 107 108 109 110 111 112 113 114 115 116 117 118 119 120 121 122 123 124 125 126 127 128 129 130 131 132 133 134 135 136 137 138 139 140 141 142 143 144 145 146 147 148 149 150 151 152 153 154 155 156 157 158 159 160 161 162 163 164 165 166 167 168 169 170 171 172 173 174 175 176 177 178 179 180 181 182 183 184 185 186 187 188 189 190 191 </p>
        </polylist>
      </mesh>
    </geometry>
    <geometry id="tree_oak_2" name="tree_oak" >
      <mesh>
        <source id="tree_oak_2-positions" name="tree_oak_2-positions">
          <float_array id="tree_oak_2-positions-array" count="1188"> 4.76837201e-08 0.500400007 0.046542909 -0.0600155592 0.159999996 0.0346500203 4.76837201e-08 0.159999996 0.0693000108 -0.0600155592 0.159999996 0.0346500203 4.76837201e-08 0.500400007 0.046542909 -0.040307261 0.500400007 0.0232713893 0.0403073505 0.500400007 -0.0232713893 0.0600155592 0.159999996 0.0346500203 0.0600155592 0.159999996 -0.0346500203 0.0600155592 0.159999996 0.0346500203 0.0403073505 0.500400007 -0.0232713893 0.0403073505 0.500400007 0.0232713893 0.0451629385 0.228754103 -0.0964604169 0.0610031411 0.211083695 -0.0884963721 0.0456744395 0.211083695 -0.0973463729 0.0610031411 0.211083695 -0.0884963721 0.0451629385 0.228754103 -0.0964604169 0.0604915395 0.228754103 -0.0876104087 0.0418333486 0.315877199 0.0925581902 0.0377075411 0.306847394 0.0377121903 0.0571619496 0.315877199 0.0837082118 0.0377075411 0.306847394 0.0377121903 0.0418333486 0.315877199 0.0925581902 0.0117267398 0.306847394 0.0527121983 0.0600155592 0.159999996 0.0346500203 0.0377075411 0.306847394 0.0377121903 4.76837201e-08 0.159999996 0.0693000108 0.0377075411 0.306847394 0.0377121903 0.0600155592 0.159999996 0.0346500203 0.0403073505 0.500400007 0.0232713893 0.0377075411 0.306847394 0.0377121903 0.0403073505 0.500400007 0.0232713893 0.0368405618 0.336797208 0.0362105109 0.0368405618 0.336797208 0.0362105109 0.0403073505 0.500400007 0.0232713893 0.0108597502 0.336797208 0.0512105003 0.0117267398 0.306847394 0.0527121983 4.76837201e-08 0.159999996 0.0693000108 0.0377075411 0.306847394 0.0377121903 4.76837201e-08 0.159999996 0.0693000108 0.0117267398 0.306847394 0.0527121983 4.76837201e-08 0.500400007 0.046542909 4.76837201e-08 0.500400007 0.046542909 0.0117267398 0.306847394 0.0527121983 0.0108597502 0.336797208 0.0512105003 4.76837201e-08 0.500400007 0.046542909 0.0108597502 0.336797208 0.0512105003 0.0403073505 0.500400007 0.0232713893 -0.0600155592 0.159999996 0.0346500203 -0.040307261 0.500400007 -0.0232713893 -0.0600155592 0.159999996 -0.0346500203 -0.040307261 0.500400007 -0.0232713893 -0.0600155592 0.159999996 0.0346500203 -0.040307261 0.500400007 0.0232713893 -0.040307261 0.500400007 -0.0232713893 4.76837201e-08 0.159999996 -0.0693000108 -0.0600155592 0.159999996 -0.0346500203 4.76837201e-08 0.159999996 -0.0693000108 -0.040307261 0.500400007 -0.0232713893 4.76837201e-08 0.500400007 -0.046542909 0.0566504486 0.333547503 0.0828222036 0.0418333486 0.315877199 0.0925581902 0.0571619496 0.315877199 0.0837082118 0.0418333486 0.315877199 0.0925581902 0.0566504486 0.333547503 0.0828222036 0.0413217507 0.333547503 0.091672197 0.0117267398 0.306847394 0.0527121983 0.0413217507 0.333547503 0.091672197 0.0108597502 0.336797208 0.0512105003 0.0413217507 0.333547503 0.091672197 0.0117267398 0.306847394 0.0527121983 0.0418333486 0.315877199 0.0925581902 0.0368405618 0.336797208 0.0362105109 0.0413217507 0.333547503 0.091672197 0.0566504486 0.333547503 0.0828222036 0.0413217507 0.333547503 0.091672197 0.0368405618 0.336797208 0.0362105109 0.0108597502 0.336797208 0.0512105003 0.0604915395 0.228754103 -0.0876104087 0.0415487587 0.202053905 -0.0425003804 0.0610031411 0.211083695 -0.0884963721 0.0415487587 0.202053905 -0.0425003804 0.0604915395 0.228754103 -0.0876104087 0.0406817384 0.232003704 -0.0409986712 0.01556795 0.202053905 -0.057500381 0.0451629385 0.228754103 -0.0964604169 0.0456744395 0.211083695 -0.0973463729 0.0451629385 0.228754103 -0.0964604169 0.01556795 0.202053905 -0.057500381 0.0147009399 0.232003704 -0.0559986793 0.0566504486 0.333547503 0.0828222036 0.0377075411 0.306847394 0.0377121903 0.0368405618 0.336797208 0.0362105109 0.0377075411 0.306847394 0.0377121903 0.0566504486 0.333547503 0.0828222036 0.0571619496 0.315877199 0.0837082118 0.0451629385 0.228754103 -0.0964604169 0.0406817384 0.232003704 -0.0409986712 0.0604915395 0.228754103 -0.0876104087 0.0406817384 0.232003704 -0.0409986712 0.0451629385 0.228754103 -0.0964604169 0.0147009399 0.232003704 -0.0559986793 4.76837201e-08 0.159999996 -0.0693000108 0.01556795 0.202053905 -0.057500381 0.0600155592 0.159999996 -0.0346500203 0.01556795 0.202053905 -0.057500381 4.76837201e-08 0.159999996 -0.0693000108 4.76837201e-08 0.500400007 -0.046542909 0.01556795 0.202053905 -0.057500381 4.76837201e-08 0.500400007 -0.046542909 0.0147009399 0.232003704 -0.0559986793 0.0147009399 0.232003704 -0.0559986793 4.76837201e-08 0.500400007 -0.046542909 0.0406817384 0.232003704 -0.0409986712 0.0415487587 0.202053905 -0.0425003804 0.0600155592 0.159999996 -0.0346500203 0.01556795 0.202053905 -0.057500381 0.0600155592 0.159999996 -0.0346500203 0.0415487587 0.202053905 -0.0425003804 0.0403073505 0.500400007 -0.0232713893 0.0403073505 0.500400007 -0.0232713893 0.0415487587 0.202053905 -0.0425003804 0.0406817384 0.232003704 -0.0409986712 0.0403073505 0.500400007 -0.0232713893 0.0406817384 0.232003704 -0.0409986712 4.76837201e-08 0.500400007 -0.046542909 0.0415487587 0.202053905 -0.0425003804 0.0456744395 0.211083695 -0.0973463729 0.0610031411 0.211083695 -0.0884963721 0.0456744395 0.211083695 -0.0973463729 0.0415487587 0.202053905 -0.0425003804 0.01556795 0.202053905 -0.057500381 0.0600155592 0.159999996 -0.0346500203 0.0820652694 0 -0.0265330393 0.0820652694 0 -0.0473804288 0.0820652694 0 -0.0265330393 0.0600155592 0.159999996 -0.0346500203 0.0765474588 0.0400391109 -0.0269547105 0.0600155592 0.159999996 0.0346500203 0.0765474588 0.0400391109 -0.0269547105 0.0600155592 0.159999996 -0.0346500203 0.0765474588 0.0400391109 -0.0269547105 0.0600155592 0.159999996 0.0346500203 0.0765474588 0.0400391109 0.0269547105 0.0820652694 0 0.0473804288 0.0765474588 0.0400391109 0.0269547105 0.0600155592 0.159999996 0.0346500203 0.0765474588 0.0400391109 0.0269547105 0.0820652694 0 0.0473804288 0.0820652694 0 0.0265330393 0.0733808875 0 0.161213398 0.0119184898 0.0815152824 0.0749081671 0.0184646696 0 0.0841002837 0.0589130707 0.0815152824 0.0477758311 0.0733808875 0 0.161213398 0.102924399 0 0.144156396 0.0733808875 0 0.161213398 0.0589130707 0.0815152824 0.0477758311 0.0119184898 0.0815152824 0.0749081671 0.102924399 0 0.144156396 0.0636005774 0 0.0580410287 0.0589130707 0.0815152824 0.0477758311 -0.0616171695 0.0400391109 -0.0528147109 -0.117804296 0 -0.169929296 -0.0640109032 0 -0.0578041188 -0.0882607996 0 -0.186986297 -0.0616171695 0.0400391109 -0.0528147109 -0.0149302203 0.0400391109 -0.0797694027 -0.0616171695 0.0400391109 -0.0528147109 -0.0882607996 0 -0.186986297 -0.117804296 0 -0.169929296 -0.0882607996 0 0.186986297 -0.0180543102 0 0.0843371525 -0.0149302203 0.0400391109 0.0797694027 -0.117804296 0 0.169929296 -0.0616171695 0.0400391109 0.0528147109 -0.0640109032 0 0.0578041188 -0.0616171695 0.0400391109 0.0528147109 -0.0882607996 0 0.186986297 -0.0149302203 0.0400391109 0.0797694027 -0.0882607996 0 0.186986297 -0.0616171695 0.0400391109 0.0528147109 -0.117804296 0 0.169929296 -0.0708315969 0.0815152675 0.0271323305 -0.176305294 0 0.0170569606 -0.0820652694 0 0.0260592401 -0.0708315969 0.0815152675 -0.0271323305 -0.0820652694 0 -0.0260592401 -0.176305294 0 -0.0170569606 0.0636005774 0 0.0580410287 0.0820652694 0 0.0265330393 0.0820652694 0 0.0473804288 0.0820652694 0 0.0265330393 0.0636005774 0 0.0580410287 0.0820652694 0 -0.0265330393 0.0820652694 0 -0.0265330393 0.0636005774 0 0.0580410287 0.0820652694 0 -0.0473804288 0.0820652694 0 -0.0473804288 0.0636005774 0 0.0580410287 0.0636006296 0 -0.0580410101 0.0184647106 0 -0.0841002464 0.0636006296 0 -0.0580410101 0.0636005774 0 0.0580410287 0.0733809397 0 -0.161213294 0.0636006296 0 -0.0580410101 0.0184647106 0 -0.0841002464 0.0636006296 0 -0.0580410101 0.0733809397 0 -0.161213294 0.102924399 0 -0.144156396 0.206065297 0 -0.0170569606 0.0820652694 0 0.0265330393 0.0820652694 0 -0.0265330393 0.0820652694 0 0.0265330393 0.206065297 0 -0.0170569606 0.206065297 0 0.0170569606 0.0636005774 0 0.0580410287 0.0184646696 0 0.0841002837 0.0184647106 0 -0.0841002464 0.0636005774 0 0.0580410287 0.0733808875 0 0.161213398 0.0184646696 0 0.0841002837 0.0733808875 0 0.161213398 0.0636005774 0 0.0580410287 0.102924399 0 0.144156396 0.0184647106 0 -0.0841002464 0.0184646696 0 0.0841002837 6.52027339e-08 0 -0.0947608277 6.52027339e-08 0 -0.0947608277 0.0184646696 0 0.0841002837 6.52027339e-08 0 0.0947608277 6.52027339e-08 0 -0.0947608277 6.52027339e-08 0 0.0947608277 -0.0180543102 0 0.0843371525 6.52027339e-08 0 -0.0947608277 -0.0180543102 0 0.0843371525 -0.0180543102 0 -0.0843371525 -0.0180543102 0 -0.0843371525 -0.0180543102 0 0.0843371525 -0.0882607996 0 0.186986297 -0.0180543102 0 -0.0843371525 -0.0882607996 0 0.186986297 -0.0640109032 0 0.0578041188 -0.0640109032 0 0.0578041188 -0.0882607996 0 0.186986297 -0.117804296 0 0.169929296 -0.0640109032 0 -0.0578041188 -0.0180543102 0 -0.0843371525 -0.0640109032 0 0.0578041188 -0.0820652694 0 0.0473804288 -0.0640109032 0 -0.0578041188 -0.0640109032 0 0.0578041188 -0.0640109032 0 -0.0578041188 -0.0820652694 0 0.0473804288 -0.0820652694 0 -0.0473804288 -0.0820652694 0 -0.0473804288 -0.0820652694 0 0.0473804288 -0.0820652694 0 0.0260592401 -0.0820652694 0 -0.0473804288 -0.0820652694 0 0.0260592401 -0.0820652694 0 -0.0260592401 -0.176305294 0 0.0170569606 -0.0820652694 0 -0.0260592401 -0.0820652694 0 0.0260592401 -0.0820652694 0 -0.0260592401 -0.176305294 0 0.0170569606 -0.176305294 0 -0.0170569606 -0.0180543102 0 -0.0843371525 -0.0640109032 0 -0.0578041188 -0.0882607996 0 -0.186986297 -0.0882607996 0 -0.186986297 -0.0640109032 0 -0.0578041188 -0.117804296 0 -0.169929296 0.0765474588 0.0400391109 -0.0269547105 0.206065297 0 0.0170569606 0.206065297 0 -0.0170569606 0.206065297 0 0.0170569606 0.0765474588 0.0400391109 -0.0269547105 0.0765474588 0.0400391109 0.0269547105 0.0733809397 0 -0.161213294 0.0589131117 0.0815152824 -0.0477758013 0.102924399 0 -0.144156396 0.0589131117 0.0815152824 -0.0477758013 0.0733809397 0 -0.161213294 0.0119185401 0.0815152824 -0.0749081522 0.0119185401 0.0815152824 -0.0749081522 0.0733809397 0 -0.161213294 0.0184647106 0 -0.0841002464 0.0589131117 0.0815152824 -0.0477758013 0.0636006296 0 -0.0580410101 0.102924399 0 -0.144156396 -0.0820652694 0 -0.0473804288 -0.0616171695 0.0400391109 -0.0528147109 -0.0640109032 0 -0.0578041188 -0.0616171695 0.0400391109 -0.0528147109 -0.0820652694 0 -0.0473804288 -0.0600155592 0.159999996 -0.0346500203 -0.0616171695 0.0400391109 -0.0528147109 -0.0600155592 0.159999996 -0.0346500203 -0.0149302203 0.0400391109 -0.0797694027 4.76837201e-08 0.159999996 -0.0693000108 -0.0149302203 0.0400391109 -0.0797694027 -0.0600155592 0.159999996 -0.0346500203 6.52027339e-08 0 -0.0947608277 -0.0149302203 0.0400391109 -0.0797694027 4.76837201e-08 0.159999996 -0.0693000108 -0.0149302203 0.0400391109 -0.0797694027 6.52027339e-08 0 -0.0947608277 -0.0180543102 0 -0.0843371525 -0.0820652694 0 -0.0260592401 -0.0600155592 0.159999996 -0.0346500203 -0.0820652694 0 -0.0473804288 -0.0600155592 0.159999996 -0.0346500203 -0.0820652694 0 -0.0260592401 -0.0708315969 0.0815152675 -0.0271323305 -0.0708315969 0.0815152675 -0.0271323305 -0.0600155592 0.159999996 0.0346500203 -0.0600155592 0.159999996 -0.0346500203 -0.0600155592 0.159999996 0.0346500203 -0.0708315969 0.0815152675 -0.0271323305 -0.0708315969 0.0815152675 0.0271323305 -0.0708315969 0.0815152675 0.0271323305 -0.0820652694 0 0.0473804288 -0.0600155592 0.159999996 0.0346500203 -0.0820652694 0 0.0473804288 -0.0708315969 0.0815152675 0.0271323305 -0.0820652694 0 0.0260592401 6.52027339e-08 0 0.0947608277 -0.0149302203 0.0400391109 0.0797694027 -0.0180543102 0 0.0843371525 -0.0149302203 0.0400391109 0.0797694027 6.52027339e-08 0 0.0947608277 4.76837201e-08 0.159999996 0.0693000108 -0.0600155592 0.159999996 0.0346500203 -0.0149302203 0.0400391109 0.0797694027 4.76837201e-08 0.159999996 0.0693000108 -0.0600155592 0.159999996 0.0346500203 -0.0616171695 0.0400391109 0.0528147109 -0.0149302203 0.0400391109 0.0797694027 -0.0820652694 0 0.0473804288 -0.0616171695 0.0400391109 0.0528147109 -0.0600155592 0.159999996 0.0346500203 -0.0616171695 0.0400391109 0.0528147109 -0.0820652694 0 0.0473804288 -0.0640109032 0 0.0578041188 4.76837201e-08 0.159999996 -0.0693000108 0.0184647106 0 -0.0841002464 6.52027339e-08 0 -0.0947608277 0.0184647106 0 -0.0841002464 4.76837201e-08 0.159999996 -0.0693000108 0.0119185401 0.0815152824 -0.0749081522 0.0600155592 0.159999996 -0.0346500203 0.0119185401 0.0815152824 -0.0749081522 4.76837201e-08 0.159999996 -0.0693000108 0.0600155592 0.159999996 -0.0346500203 0.0589131117 0.0815152824 -0.0477758013 0.0119185401 0.0815152824 -0.0749081522 0.0820652694 0 -0.0473804288 0.0589131117 0.0815152824 -0.0477758013 0.0600155592 0.159999996 -0.0346500203 0.0589131117 0.0815152824 -0.0477758013 0.0820652694 0 -0.0473804288 0.0636006296 0 -0.0580410101 0.0600155592 0.159999996 0.0346500203 0.0636005774 0 0.0580410287 0.0820652694 0 0.0473804288 0.0636005774 0 0.0580410287 0.0600155592 0.159999996 0.0346500203 0.0589130707 0.0815152824 0.0477758311 0.0589130707 0.0815152824 0.0477758311 0.0600155592 0.159999996 0.0346500203 0.0119184898 0.0815152824 0.0749081671 4.76837201e-08 0.159999996 0.0693000108 0.0119184898 0.0815152824 0.0749081671 0.0600155592 0.159999996 0.0346500203 6.52027339e-08 0 0.0947608277 0.0119184898 0.0815152824 0.0749081671 4.76837201e-08 0.159999996 0.0693000108 0.0119184898 0.0815152824 0.0749081671 6.52027339e-08 0 0.0947608277 0.0184646696 0 0.0841002837 0.0765474588 0.0400391109 0.0269547105 0.0820652694 0 0.0265330393 0.206065297 0 0.0170569606 -0.176305294 0 -0.0170569606 -0.0708315969 0.0815152675 0.0271323305 -0.0708315969 0.0815152675 -0.0271323305 -0.0708315969 0.0815152675 0.0271323305 -0.176305294 0 -0.0170569606 -0.176305294 0 0.0170569606 0.0765474588 0.0400391109 -0.0269547105 0.206065297 0 -0.0170569606 0.0820652694 0 -0.0265330393 -0.0149302203 0.0400391109 -0.0797694027 -0.0180543102 0 -0.0843371525 -0.0882607996 0 -0.186986297 </float_array>
          <technique_common>
            <accessor count="396" offset="0" source="#tree_oak_2-positions-array" stride="3">
              <param name="X" type="float" />
              <param name="Y" type="float" />
              <param name="Z" type="float" />
            </accessor>
          </technique_common>
        </source>
        <source id="tree_oak_2-normals" name="tree_oak_2-normals">
          <float_array id="tree_oak_2-normals-array" count="1188"> -0.499164194 0.0578006096 0.864577413 -0.499164194 0.0578006096 0.864577413 -0.499164194 0.0578006096 0.864577413 -0.499164194 0.0578006096 0.864577413 -0.499164194 0.0578006096 0.864577413 -0.499164194 0.0578006096 0.864577413 0.99832809 0.057800401 0 0.99832809 0.057800401 0 0.99832809 0.057800401 0 0.99832809 0.057800401 0 0.99832809 0.057800401 0 0.99832809 0.057800401 0 0.499164194 0.0577990487 -0.864577472 0.499164194 0.0577990487 -0.864577472 0.499164194 0.0577990487 -0.864577472 0.499164194 0.0577990487 -0.864577472 0.499164194 0.0577990487 -0.864577472 0.499164194 0.0577990487 -0.864577472 0.0896224827 -0.983804524 0.155230805 0.0896224827 -0.983804524 0.155230805 0.0896224827 -0.983804524 0.155230805 0.0896224827 -0.983804524 0.155230805 0.0896224827 -0.983804524 0.155230805 0.0896224827 -0.983804524 0.155230805 0.499164402 0.0578005016 0.864577413 0.499164402 0.0578005016 0.864577413 0.499164402 0.0578005016 0.864577413 0.499164402 0.0578005016 0.864577413 0.499164402 0.0578005016 0.864577413 0.499164402 0.0578005016 0.864577413 0.499164402 0.0578005016 0.864577413 0.499164402 0.0578005016 0.864577413 0.499164402 0.0578005016 0.864577413 0.499164402 0.0578005016 0.864577413 0.499164402 0.0578005016 0.864577413 0.499164402 0.0578005016 0.864577413 0.499164402 0.0578005016 0.864577413 0.499164402 0.0578005016 0.864577413 0.499164402 0.0578005016 0.864577413 0.499164402 0.0578005016 0.864577413 0.499164402 0.0578005016 0.864577413 0.499164402 0.0578005016 0.864577413 0.499164402 0.0578005016 0.864577413 0.499164402 0.0578005016 0.864577413 0.499164402 0.0578005016 0.864577413 0.499164402 0.0578005016 0.864577413 0.499164402 0.0578005016 0.864577413 0.499164402 0.0578005016 0.864577413 -0.99832809 0.0578006804 0 -0.99832809 0.0578006804 0 -0.99832809 0.0578006804 0 -0.99832809 0.0578006804 0 -0.99832809 0.0578006804 0 -0.99832809 0.0578006804 0 -0.499164194 0.0578006096 -0.864577413 -0.499164194 0.0578006096 -0.864577413 -0.499164194 0.0578006096 -0.864577413 -0.499164194 0.0578006096 -0.864577413 -0.499164194 0.0578006096 -0.864577413 -0.499164194 0.0578006096 -0.864577413 0.499163687 0.0578011088 0.864577711 0.499163687 0.0578011088 0.864577711 0.499163687 0.0578011088 0.864577711 0.499163687 0.0578011088 0.864577711 0.499163687 0.0578011088 0.864577711 0.499163687 0.0578011088 0.864577711 -0.798609078 0.00705595082 0.601808727 -0.798609078 0.00705595082 0.601808727 -0.798609078 0.00705595082 0.601808727 -0.798609078 0.00705595082 0.601808727 -0.798609078 0.00705595082 0.601808727 -0.798609078 0.00705595082 0.601808727 0.0322538093 0.997917175 0.0558653809 0.0322538093 0.997917175 0.0558653809 0.0322538093 0.997917175 0.0558653809 0.0322538093 0.997917175 0.0558653809 0.0322538093 0.997917175 0.0558653809 0.0322538093 0.997917175 0.0558653809 0.920486093 0.00705745909 0.390711695 0.920486093 0.00705745909 0.390711695 0.920486093 0.00705745909 0.390711695 0.920486093 0.00705745909 0.390711695 0.920486093 0.00705745909 0.390711695 0.920486093 0.00705745909 0.390711695 -0.798609674 0.00705630891 -0.601807714 -0.798609674 0.00705630891 -0.601807714 -0.798609674 0.00705630891 -0.601807714 -0.798609674 0.00705630891 -0.601807714 -0.798609674 0.00705630891 -0.601807714 -0.798609674 0.00705630891 -0.601807714 0.920485675 0.00705553917 -0.390712589 0.920485675 0.00705553917 -0.390712589 0.920485675 0.00705553917 -0.390712589 0.920485675 0.00705553917 -0.390712589 0.920485675 0.00705553917 -0.390712589 0.920485675 0.00705553917 -0.390712589 0.0322529301 0.997917414 -0.0558637008 0.0322529301 0.997917414 -0.0558637008 0.0322529301 0.997917414 -0.0558637008 0.0322529301 0.997917414 -0.0558637008 0.0322529301 0.997917414 -0.0558637008 0.0322529301 0.997917414 -0.0558637008 0.499164402 0.0578005612 -0.864577293 0.499164402 0.0578005612 -0.864577293 0.499164402 0.0578005612 -0.864577293 0.499164402 0.0578005612 -0.864577293 0.499164402 0.0578005612 -0.864577293 0.499164402 0.0578005612 -0.864577293 0.499164402 0.0578005612 -0.864577293 0.499164402 0.0578005612 -0.864577293 0.499164402 0.0578005612 -0.864577293 0.499164402 0.0578005612 -0.864577293 0.499164402 0.0578005612 -0.864577293 0.499164402 0.0578005612 -0.864577293 0.499164402 0.0578005612 -0.864577293 0.499164402 0.0578005612 -0.864577293 0.499164402 0.0578005612 -0.864577293 0.499164402 0.0578005612 -0.864577293 0.499164402 0.0578005612 -0.864577293 0.499164402 0.0578005612 -0.864577293 0.499164402 0.0578005612 -0.864577293 0.499164402 0.0578005612 -0.864577293 0.499164402 0.0578005612 -0.864577293 0.499164402 0.0578005612 -0.864577293 0.499164402 0.0578005612 -0.864577293 0.499164402 0.0578005612 -0.864577293 0.0896224901 -0.983804405 -0.155230895 0.0896224901 -0.983804405 -0.155230895 0.0896224901 -0.983804405 -0.155230895 0.0896224901 -0.983804405 -0.155230895 0.0896224901 -0.983804405 -0.155230895 0.0896224901 -0.983804405 -0.155230895 0.990637183 0.136520401 0 0.990637183 0.136520401 0 0.990637183 0.136520401 0 0.990637183 0.136520401 0 0.990637183 0.136520401 0 0.990637183 0.136520401 0 0.990637183 0.136520401 0 0.990637183 0.136520401 0 0.990637183 0.136520401 0 0.990637183 0.136520401 0 0.990637183 0.136520401 0 0.990637183 0.136520401 0 0.990637183 0.136520401 0 0.990637183 0.136520401 0 0.990637183 0.136520401 0 0.990637183 0.136520401 0 0.990637183 0.136520401 0 0.990637183 0.136520401 0 -0.814554811 0 0.580086827 -0.814554811 0 0.580086827 -0.814554811 0 0.580086827 0.305754215 0.791238189 0.529581428 0.305754215 0.791238189 0.529581428 0.305754215 0.791238189 0.529581428 0.305754215 0.791238189 0.529581428 0.305754215 0.791238189 0.529581428 0.305754215 0.791238189 0.529581428 0.909646988 0 -0.415382206 0.909646988 0 -0.415382206 0.909646988 0 -0.415382206 -0.901606798 0 0.432556599 -0.901606798 0 0.432556599 -0.901606798 0 0.432556599 -0.147674397 0.95538938 -0.255779713 -0.147674397 0.95538938 -0.255779713 -0.147674397 0.95538938 -0.255779713 -0.147674397 0.95538938 -0.255779713 -0.147674397 0.95538938 -0.255779713 -0.147674397 0.95538938 -0.255779713 0.825408876 0 0.56453532 0.825408876 0 0.56453532 0.825408876 0 0.56453532 -0.901606798 0 -0.432556599 -0.901606798 0 -0.432556599 -0.901606798 0 -0.432556599 -0.147674397 0.95538938 0.255779713 -0.147674397 0.95538938 0.255779713 -0.147674397 0.95538938 0.255779713 -0.147674397 0.95538938 0.255779713 -0.147674397 0.95538938 0.255779713 -0.147674397 0.95538938 0.255779713 -0.0950921923 0 0.995468497 -0.0950921923 0 0.995468497 -0.0950921923 0 0.995468497 -0.0950921923 0 -0.995468497 -0.0950921923 0 -0.995468497 -0.0950921923 0 -0.995468497 0 -1 0 0 -1 0 0 -1 0 0 -1 0 0 -1 0 0 -1 0 0 -1 0 0 -1 0 0 -1 0 0 -1 0 0 -1 0 0 -1 0 0 -1 0 0 -1 0 0 -1 0 0 -1 0 0 -1 0 0 -1 0 0 -1 0 0 -1 0 0 -1 0 0 -1 0 0 -1 0 0 -1 0 0 -1 0 0 -1 0 0 -1 0 0 -1 0 0 -1 0 0 -1 0 0 -1 0 0 -1 0 0 -1 0 0 -1 0 0 -1 0 0 -1 0 0 -1 0 0 -1 0 0 -1 0 0 -1 0 0 -1 0 0 -1 0 0 -1 0 0 -1 0 0 -1 0 0 -1 0 0 -1 0 0 -1 0 0 -1 0 0 -1 0 0 -1 0 0 -1 0 0 -1 0 0 -1 0 0 -1 0 0 -1 0 0 -1 0 0 -1 0 0 -1 0 0 -1 0 0 -1 0 0 -1 0 0 -1 0 0 -1 0 0 -1 0 0 -1 0 0 -1 0 0 -1 0 0 -1 0 0 -1 0 0 -1 0 0 -1 0 0 -1 0 0 -1 0 0 -1 0 0 -1 0 0 -1 0 0 -1 0 0 -1 0 0 -1 0 0 -1 0 0 -1 0 0 -1 0 0 -1 0 0.295348912 0.95538938 0 0.295348912 0.95538938 0 0.295348912 0.95538938 0 0.295348912 0.95538938 0 0.295348912 0.95538938 0 0.295348912 0.95538938 0 0.305754215 0.791238189 -0.529581428 0.305754215 0.791238189 -0.529581428 0.305754215 0.791238189 -0.529581428 0.305754215 0.791238189 -0.529581428 0.305754215 0.791238189 -0.529581428 0.305754215 0.791238189 -0.529581428 -0.814554811 0 -0.580086827 -0.814554811 0 -0.580086827 -0.814554811 0 -0.580086827 0.909646988 0 0.415382206 0.909646988 0 0.415382206 0.909646988 0 0.415382206 -0.495318294 0.136520401 -0.85791719 -0.495318294 0.136520401 -0.85791719 -0.495318294 0.136520401 -0.85791719 -0.495318294 0.136520401 -0.85791719 -0.495318294 0.136520401 -0.85791719 -0.495318294 0.136520401 -0.85791719 -0.495318294 0.136520401 -0.85791719 -0.495318294 0.136520401 -0.85791719 -0.495318294 0.136520401 -0.85791719 -0.495318294 0.136520401 -0.85791719 -0.495318294 0.136520401 -0.85791719 -0.495318294 0.136520401 -0.85791719 -0.495318294 0.136520401 -0.85791719 -0.495318294 0.136520401 -0.85791719 -0.495318294 0.136520401 -0.85791719 -0.495318294 0.136520401 -0.85791719 -0.495318294 0.136520401 -0.85791719 -0.495318294 0.136520401 -0.85791719 -0.990637183 0.136520401 0 -0.990637183 0.136520401 0 -0.990637183 0.136520401 0 -0.990637183 0.136520401 0 -0.990637183 0.136520401 0 -0.990637183 0.136520401 0 -0.990637183 0.136520401 0 -0.990637183 0.136520401 0 -0.990637183 0.136520401 0 -0.990637183 0.136520401 0 -0.990637183 0.136520401 0 -0.990637183 0.136520401 0 -0.990637183 0.136520401 0 -0.990637183 0.136520401 0 -0.990637183 0.136520401 0 -0.990637183 0.136520401 0 -0.990637183 0.136520401 0 -0.990637183 0.136520401 0 -0.495318294 0.136520401 0.85791719 -0.495318294 0.136520401 0.85791719 -0.495318294 0.136520401 0.85791719 -0.495318294 0.136520401 0.85791719 -0.495318294 0.136520401 0.85791719 -0.495318294 0.136520401 0.85791719 -0.495318294 0.136520401 0.85791719 -0.495318294 0.136520401 0.85791719 -0.495318294 0.136520401 0.85791719 -0.495318294 0.136520401 0.85791719 -0.495318294 0.136520401 0.85791719 -0.495318294 0.136520401 0.85791719 -0.495318294 0.136520401 0.85791719 -0.495318294 0.136520401 0.85791719 -0.495318294 0.136520401 0.85791719 -0.495318294 0.136520401 0.85791719 -0.495318294 0.136520401 0.85791719 -0.495318294 0.136520401 0.85791719 0.4953188 0.136520505 -0.857916772 0.4953188 0.136520505 -0.857916772 0.4953188 0.136520505 -0.857916772 0.4953188 0.136520505 -0.857916772 0.4953188 0.136520505 -0.857916772 0.4953188 0.136520505 -0.857916772 0.4953188 0.136520505 -0.857916772 0.4953188 0.136520505 -0.857916772 0.4953188 0.136520505 -0.857916772 0.4953188 0.136520505 -0.857916772 0.4953188 0.136520505 -0.857916772 0.4953188 0.136520505 -0.857916772 0.4953188 0.136520505 -0.857916772 0.4953188 0.136520505 -0.857916772 0.4953188 0.136520505 -0.857916772 0.4953188 0.136520505 -0.857916772 0.4953188 0.136520505 -0.857916772 0.4953188 0.136520505 -0.857916772 0.4953188 0.136520505 0.857916772 0.4953188 0.136520505 0.857916772 0.4953188 0.136520505 0.857916772 0.4953188 0.136520505 0.857916772 0.4953188 0.136520505 0.857916772 0.4953188 0.136520505 0.857916772 0.4953188 0.136520505 0.857916772 0.4953188 0.136520505 0.857916772 0.4953188 0.136520505 0.857916772 0.4953188 0.136520505 0.857916772 0.4953188 0.136520505 0.857916772 0.4953188 0.136520505 0.857916772 0.4953188 0.136520505 0.857916772 0.4953188 0.136520505 0.857916772 0.4953188 0.136520505 0.857916772 0.4953188 0.136520505 0.857916772 0.4953188 0.136520505 0.857916772 0.4953188 0.136520505 0.857916772 0.0761978775 0 0.997092724 0.0761978775 0 0.997092724 0.0761978775 0 0.997092724 -0.611508012 0.791238189 0 -0.611508012 0.791238189 0 -0.611508012 0.791238189 0 -0.611508012 0.791238189 0 -0.611508012 0.791238189 0 -0.611508012 0.791238189 0 0.0761978775 0 -0.997092724 0.0761978775 0 -0.997092724 0.0761978775 0 -0.997092724 0.825408876 0 -0.56453532 0.825408876 0 -0.56453532 0.825408876 0 -0.56453532 </float_array>
          <technique_common>
            <accessor count="396" offset="0" source="#tree_oak_2-normals-array" stride="3">
              <param name="X" type="float" />
              <param name="Y" type="float" />
              <param name="Z" type="float" />
            </accessor>
          </technique_common>
        </source>
        <source id="tree_oak_2-tex0" name="tree_oak_2-tex0">
          <float_array id="tree_oak_2-tex0-array" count="792"> 0.916200817 19.5761299 -1.36417198 6.15210915 1.36417496 6.15210915 -1.36417198 6.15210915 0.916200817 19.5761299 -0.916197181 19.5761299 0.916196585 19.5761299 -1.36417401 6.1521101 1.36417401 6.1521101 -1.36417401 6.1521101 0.916196585 19.5761299 -0.916196585 19.5761299 0.3589755 8.74953175 -0.337876201 8.05268192 0.358975798 8.05268192 -0.337876201 8.05268192 0.3589755 8.74953175 -0.337873191 8.74953175 -0.395682096 6.14397192 0.543291628 4.16063309 0.301166087 6.14397097 0.543291628 4.16063309 -0.395682096 6.14397192 -0.637812376 4.16063213 1.36417198 6.15210915 0.543290377 11.9431801 -1.36417294 6.15210915 0.543290377 11.9431801 1.36417198 6.15210915 0.916199982 19.5761299 0.543290377 11.9431801 0.916199982 19.5761299 0.543290675 13.12428 0.543290675 13.12428 0.916199982 19.5761299 -0.637812912 13.12428 -0.637813687 11.9431801 -1.36417294 6.15210915 0.543290377 11.9431801 -1.36417294 6.15210915 -0.637813687 11.9431801 -0.916197896 19.5761299 -0.916197896 19.5761299 -0.637813687 11.9431801 -0.637812912 13.12428 -0.916197896 19.5761299 -0.637812912 13.12428 0.916199982 19.5761299 1.36417401 6.15210915 -0.916196585 19.5761299 -1.36417401 6.15210915 -0.916196585 19.5761299 1.36417401 6.15210915 0.916196585 19.5761299 0.916197181 19.5761299 -1.36417496 6.15210915 1.36417198 6.15210915 -1.36417496 6.15210915 0.916197181 19.5761299 -0.916200817 19.5761299 0.301167786 12.8821602 -0.39568159 12.1853104 0.301166594 12.1853104 -0.39568159 12.1853104 0.301167786 12.8821602 -0.395684212 12.8821602 1.935233 12.07409 3.86143708 13.1253099 1.86747408 13.2532501 3.86143708 13.1253099 1.935233 12.07409 3.90141606 12.4296103 0.543293715 -1.10038495 -0.395681113 -3.08372307 0.301170886 -3.08372307 -0.395681113 -3.08372307 0.543293715 -1.10038495 -0.637809873 -1.10038495 4.10557079 8.99988174 2.17936897 7.94866705 4.14554882 8.30418015 2.17936897 7.94866705 4.10557079 8.99988174 2.11160898 9.12782192 -2.17679811 7.94852114 -4.10300207 8.99973488 -4.14297676 8.30403328 -4.10300207 8.99973488 -2.17679811 7.94852114 -2.10903811 9.12767506 -3.87295794 13.1259699 -1.94675493 12.0747604 -1.87899709 13.2539101 -1.94675493 12.0747604 -3.87295794 13.1259699 -3.91293597 12.4302702 0.358974814 -3.58825397 -0.580003321 -1.60491598 -0.337873906 -3.58825302 -0.580003321 -1.60491598 0.358974814 -3.58825397 0.601100802 -1.60491502 1.36417294 6.15210915 0.601101577 7.81054688 -1.36417198 6.15210915 0.601101577 7.81054688 1.36417294 6.15210915 0.916198075 19.5761299 0.601101577 7.81054688 0.916198075 19.5761299 0.601101577 8.99164772 0.601101577 8.99164772 0.916198075 19.5761299 -0.580002427 8.99164677 -0.580002427 7.81054688 -1.36417198 6.15210915 0.601101577 7.81054688 -1.36417198 6.15210915 -0.580002427 7.81054688 -0.916199923 19.5761299 -0.916199923 19.5761299 -0.580002427 7.81054688 -0.580002427 8.99164677 -0.916199923 19.5761299 -0.580002427 8.99164677 0.916198075 19.5761299 -0.580004871 3.65611792 0.358972192 5.6394558 -0.337879807 5.6394558 0.358972192 5.6394558 -0.580004871 3.65611792 0.601099193 3.65611887 1.36417401 5.91766214 1.044608 -0.441086113 1.86537099 -0.441086113 1.044608 -0.441086113 1.36417401 5.91766214 1.06120896 1.15015495 -1.36417401 5.91766214 1.06120896 1.15015495 1.36417401 5.91766214 1.06120896 1.15015495 -1.36417401 5.91766214 -1.06120896 1.15015495 -1.86537099 -0.441086113 -1.06120896 1.15015495 -1.36417401 5.91766214 -1.06120896 1.15015495 -1.86537099 -0.441086113 -1.044608 -0.441086113 6.84584188 6.68252414e-15 2.67443204 3.20926309 3.118716 6.68252414e-15 1.06819999 -0.2439937 -0.67153579 -5.49210596 0.671531498 -5.49210596 -0.67153579 -5.49210596 1.06819999 -0.2439937 -1.06820405 -0.2439937 -6.84584188 -1.022708e-14 -3.118716 -1.022708e-14 -2.67443204 3.20926309 -2.92405605 1.57634306 -8.03805065 -5.69898878e-14 -3.14192605 -5.69898878e-14 -0.671533704 -7.75088882 1.06120896 -2.41366601 -1.06120896 -2.41366601 1.06120896 -2.41366601 -0.671533704 -7.75088882 0.671533585 -7.75088882 -8.03805065 -4.04770618e-14 -3.14192605 -4.04770618e-14 -2.92405605 1.57634306 8.03805065 -2.55559988e-14 2.92405605 1.57634306 3.14192605 -2.55559988e-14 -1.06120896 -2.41366601 0.671533704 -7.75088882 1.06120896 -2.41366601 0.671533704 -7.75088882 -1.06120896 -2.41366601 -0.671533585 -7.75088882 -2.67443109 3.20926309 -6.84584093 1.60810391e-14 -3.11871505 1.60810391e-14 2.67443109 3.20926309 3.11871505 -3.156557e-15 6.84584093 -3.156557e-15 2.50396013 2.28507996 3.23091602 1.044608 3.23091602 1.86537099 3.23091602 1.044608 2.50396013 2.28507996 3.23091602 -1.044608 3.23091602 -1.044608 2.50396013 2.28507996 3.23091602 -1.86537099 3.23091602 -1.86537099 2.50396013 2.28507996 2.50396204 -2.285079 0.726957083 -3.31103396 2.50396204 -2.285079 2.50396013 2.28507996 2.88901305 -6.346982 2.50396204 -2.285079 0.726957083 -3.31103396 2.50396204 -2.285079 2.88901305 -6.346982 4.05214405 -5.67544794 8.11280632 -0.671533704 3.23091602 1.044608 3.23091602 -1.044608 3.23091602 1.044608 8.11280632 -0.671533704 8.11280632 0.671533704 2.50396013 2.28507996 0.726955414 3.31103492 0.726957083 -3.31103396 2.50396013 2.28507996 2.88901091 6.34698296 0.726955414 3.31103492 2.88901091 6.34698296 2.50396013 2.28507996 4.05214214 5.67544889 0.726957083 -3.31103396 0.726955414 3.31103492 2.5670372e-06 -3.73074102 2.5670372e-06 -3.73074102 0.726955414 3.31103492 2.5670372e-06 3.73074102 2.5670372e-06 -3.73074102 2.5670372e-06 3.73074102 -0.710799575 3.32035995 2.5670372e-06 -3.73074102 -0.710799575 3.32035995 -0.710799575 -3.32035995 -0.710799575 -3.32035995 -0.710799575 3.32035995 -3.47483492 7.36166477 -0.710799575 -3.32035995 -3.47483492 7.36166477 -2.52011395 2.27575302 -2.52011395 2.27575302 -3.47483492 7.36166477 -4.6379652 6.69013119 -2.52011395 -2.27575302 -0.710799575 -3.32035995 -2.52011395 2.27575302 -3.23091602 1.86537099 -2.52011395 -2.27575302 -2.52011395 2.27575302 -2.52011395 -2.27575302 -3.23091602 1.86537099 -3.23091602 -1.86537099 -3.23091602 -1.86537099 -3.23091602 1.86537099 -3.23091602 1.02595401 -3.23091602 -1.86537099 -3.23091602 1.02595401 -3.23091602 -1.02595401 -6.94115305 0.671533704 -3.23091602 -1.02595401 -3.23091602 1.02595401 -3.23091602 -1.02595401 -6.94115305 0.671533704 -6.94115305 -0.671533704 -0.710799575 -3.32035995 -2.52011395 -2.27575302 -3.47483492 -7.36166477 -3.47483492 -7.36166477 -2.52011395 -2.27575302 -4.6379652 -6.69013119 1.06120896 -2.41366601 -0.671533704 -7.75088882 0.671533704 -7.75088882 -0.671533704 -7.75088882 1.06120896 -2.41366601 -1.06120896 -2.41366601 0.671533704 -5.49210596 -1.06820202 -0.2439937 -0.671533585 -5.49210596 -1.06820202 -0.2439937 0.671533704 -5.49210596 1.06820202 -0.2439937 -2.67443204 3.20926309 -6.84584188 -2.30850508e-15 -3.118716 -2.30850508e-15 2.67443204 3.20926309 3.118716 -6.20153732e-15 6.84584188 -6.20153732e-15 1.86537099 -0.441086113 1.06120896 1.15015495 1.044608 -0.441086113 1.06120896 1.15015495 1.86537099 -0.441086113 1.36417401 5.91766214 1.06120896 1.15015495 1.36417401 5.91766214 -1.06120896 1.15015495 -1.36417401 5.91766214 -1.06120896 1.15015495 1.36417401 5.91766214 -1.86537099 -0.441086113 -1.06120896 1.15015495 -1.36417401 5.91766214 -1.06120896 1.15015495 -1.86537099 -0.441086113 -1.044608 -0.441086113 -1.02595401 -0.441086113 -1.36417401 5.91766214 -1.86537099 -0.441086113 -1.36417401 5.91766214 -1.02595401 -0.441086113 -1.06820202 2.79850793 -1.06820202 2.79850793 1.36417401 5.91766214 -1.36417401 5.91766214 1.36417401 5.91766214 -1.06820202 2.79850793 1.06820202 2.79850793 1.06820202 2.79850793 1.86537099 -0.441086113 1.36417401 5.91766214 1.86537099 -0.441086113 1.06820202 2.79850793 1.02595401 -0.441086113 1.86537099 -0.441086113 1.06120896 1.15015495 1.044608 -0.441086113 1.06120896 1.15015495 1.86537099 -0.441086113 1.36417401 5.91766214 -1.36417401 5.91766214 1.06120896 1.15015495 1.36417401 5.91766214 -1.36417401 5.91766214 -1.06120896 1.15015495 1.06120896 1.15015495 -1.86537099 -0.441086113 -1.06120896 1.15015495 -1.36417401 5.91766214 -1.06120896 1.15015495 -1.86537099 -0.441086113 -1.044608 -0.441086113 1.36417198 5.91766214 1.02595401 -0.441086501 1.86536908 -0.441086501 1.02595401 -0.441086501 1.36417198 5.91766214 1.06820202 2.79850793 -1.36417198 5.91766214 1.06820202 2.79850793 1.36417198 5.91766214 -1.36417198 5.91766214 -1.06820202 2.79850793 1.06820202 2.79850793 -1.86536908 -0.441086501 -1.06820202 2.79850793 -1.36417198 5.91766214 -1.06820202 2.79850793 -1.86536908 -0.441086501 -1.02595401 -0.441086501 1.36417198 5.91766214 1.02595198 -0.441086501 1.86536908 -0.441086501 1.02595198 -0.441086501 1.36417198 5.91766214 1.06819999 2.79850793 1.06819999 2.79850793 1.36417198 5.91766214 -1.06820405 2.79850793 -1.36417198 5.91766214 -1.06820405 2.79850793 1.36417198 5.91766214 -1.86536908 -0.441086501 -1.06820405 2.79850793 -1.36417198 5.91766214 -1.06820405 2.79850793 -1.86536908 -0.441086501 -1.02595603 -0.441086501 2.92405605 1.57634306 3.14192605 1.409628e-14 8.03805065 1.409628e-14 -0.671533704 -5.49210501 1.06820202 -0.243992895 -1.06820202 -0.243992895 1.06820202 -0.243992895 -0.671533704 -5.49210501 0.671533704 -5.49210501 -2.92405605 1.57634306 -8.03805065 3.01856691e-14 -3.14192605 3.01856691e-14 2.92405605 1.57634306 3.14192605 -1.01890501e-13 8.03805065 -1.01890501e-13 </float_array>
          <technique_common>
            <accessor count="396" offset="0" source="#tree_oak_2-tex0-array" stride="2">
              <param name="S" type="float" />
              <param name="T" type="float" />
            </accessor>
          </technique_common>
        </source>
        <vertices id="tree_oak_2-vertices">
          <input semantic="POSITION" source="#tree_oak_2-positions" />
        </vertices>
        <polylist count="132" material="defaultMaterial">
          <input offset="0" semantic="VERTEX" source="#tree_oak_2-vertices" />
          <input offset="0" semantic="NORMAL" source="#tree_oak_2-normals" />
          <input offset="0" semantic="TEXCOORD" source="#tree_oak_2-tex0" set="0" />
          <vcount>3 3 3 3 3 3 3 3 3 3 3 3 3 3 3 3 3 3 3 3 3 3 3 3 3 3 3 3 3 3 3 3 3 3 3 3 3 3 3 3 3 3 3 3 3 3 3 3 3 3 3 3 3 3 3 3 3 3 3 3 3 3 3 3 3 3 3 3 3 3 3 3 3 3 3 3 3 3 3 3 3 3 3 3 3 3 3 3 3 3 3 3 3 3 3 3 3 3 3 3 3 3 3 3 3 3 3 3 3 3 3 3 3 3 3 3 3 3 3 3 3 3 3 3 3 3 3 3 3 3 3 3 </vcount>
          <p>0 1 2 3 4 5 6 7 8 9 10 11 12 13 14 15 16 17 18 19 20 21 22 23 24 25 26 27 28 29 30 31 32 33 34 35 36 37 38 39 40 41 42 43 44 45 46 47 48 49 50 51 52 53 54 55 56 57 58 59 60 61 62 63 64 65 66 67 68 69 70 71 72 73 74 75 76 77 78 79 80 81 82 83 84 85 86 87 88 89 90 91 92 93 94 95 96 97 98 99 100 101 102 103 104 105 106 107 108 109 110 111 112 113 114 115 116 117 118 119 120 121 122 123 124 125 126 127 128 129 130 131 132 133 134 135 136 137 138 139 140 141 142 143 144 145 146 147 148 149 150 151 152 153 154 155 156 157 158 159 160 161 162 163 164 165 166 167 168 169 170 171 172 173 174 175 176 177 178 179 180 181 182 183 184 185 186 187 188 189 190 191 192 193 194 195 196 197 198 199 200 201 202 203 204 205 206 207 208 209 210 211 212 213 214 215 216 217 218 219 220 221 222 223 224 225 226 227 228 229 230 231 232 233 234 235 236 237 238 239 240 241 242 243 244 245 246 247 248 249 250 251 252 253 254 255 256 257 258 259 260 261 262 263 264 265 266 267 268 269 270 271 272 273 274 275 276 277 278 279 280 281 282 283 284 285 286 287 288 289 290 291 292 293 294 295 296 297 298 299 300 301 302 303 304 305 306 307 308 309 310 311 312 313 314 315 316 317 318 319 320 321 322 323 324 325 326 327 328 329 330 331 332 333 334 335 336 337 338 339 340 341 342 343 344 345 346 347 348 349 350 351 352 353 354 355 356 357 358 359 360 361 362 363 364 365 366 367 368 369 370 371 372 373 374 375 376 377 378 379 380 381 382 383 384 385 386 387 388 389 390 391 392 393 394 395 </p>
        </polylist>
      </mesh>
    </geometry>
  </library_geometries>
  <library_controllers>
  </library_controllers>
  <library_visual_scenes>
    <visual_scene id="tree_oak.obj" name="tree_oak.obj">
      <node id="tree_oak" name="tree_oak" type="NODE">
        <matrix sid="matrix">1 0 0 0 0 1 0 0 0 0 1 0 0 0 0 1</matrix>
        <instance_geometry url="#tree_oak_1">
          <bind_material>
            <technique_common>
              <instance_material symbol="defaultMaterial" target="#leafsGreen">
                <bind_vertex_input semantic="CHANNEL0" input_semantic="TEXCOORD" input_set="0"/>
              </instance_material>
            </technique_common>
          </bind_material>
        </instance_geometry>
        <instance_geometry url="#tree_oak_2">
          <bind_material>
            <technique_common>
              <instance_material symbol="defaultMaterial" target="#woodBark">
                <bind_vertex_input semantic="CHANNEL0" input_semantic="TEXCOORD" input_set="0"/>
              </instance_material>
            </technique_common>
          </bind_material>
        </instance_geometry>
      </node>
    </visual_scene>
  </library_visual_scenes>
  <scene>
    <instance_visual_scene url="#tree_oak.obj" />
  </scene>
</COLLADA>
