<?xml version="1.0" encoding="UTF-8" standalone="no" ?>
<COLLADA xmlns="http://www.collada.org/2005/11/COLLADASchema" version="1.4.1">
  <asset>
    <contributor>
      <author>Assimp</author>
      <authoring_tool>Assimp Exporter</authoring_tool>
    </contributor>
    <created>2026-09-08T09:43:03</created>
    <modified>2026-09-08T09:43:03</modified>
    <unit name="meter" meter="1" />
    <up_axis>Y_UP</up_axis>
  </asset>
  <library_images>
  </library_images>
  <library_effects>
    <effect id="DefaultMaterial-fx" name="DefaultMaterial">
      <profile_COMMON>
        <technique sid="standard">
          <phong>
            <emission>
              <color sid="emission">0   0   0   1</color>
            </emission>
            <ambient>
              <color sid="ambient">0   0   0   1</color>
            </ambient>
            <diffuse>
              <color sid="diffuse">0.600000024   0.600000024   0.600000024   1</color>
            </diffuse>
            <specular>
              <color sid="specular">0   0   0   1</color>
            </specular>
            <shininess>
              <float sid="shininess">0</float>
            </shininess>
            <transparent>
              <color sid="transparent">1   1   1   1</color>
            </transparent>
            <transparency>
              <float sid="transparency">1</float>
            </transparency>
            <index_of_refraction>
              <float sid="index_of_refraction">1</float>
            </index_of_refraction>
          </phong>
        </technique>
      </profile_COMMON>
    </effect>
    <effect id="dirt-fx" name="dirt">
      <profile_COMMON>
        <technique sid="standard">
          <phong>
            <emission>
              <color sid="emission">0   0   0   1</color>
            </emission>
            <ambient>
              <color sid="ambient">0   0   0   1</color>
            </ambient>
            <diffuse>
              <color sid="diffuse">0.886274517   0.513725519   0.34117651   1</color>
            </diffuse>
            <specular>
              <color sid="specular">0   0   0   1</color>
            </specular>
            <shininess>
              <float sid="shininess">0</float>
            </shininess>
            <transparent>
              <color sid="transparent">1   1   1   1</color>
            </transparent>
            <transparency>
              <float sid="transparency">1</float>
            </transparency>
            <index_of_refraction>
              <float sid="index_of_refraction">1</float>
            </index_of_refraction>
          </phong>
        </technique>
      </profile_COMMON>
    </effect>
    <effect id="grass-fx" name="grass">
      <profile_COMMON>
        <technique sid="standard">
          <phong>
            <emission>
              <color sid="emission">0   0   0   1</color>
            </emission>
            <ambient>
              <color sid="ambient">0   0   0   1</color>
            </ambient>
            <diffuse>
              <color sid="diffuse">0.172548994   0.847058773   0.721568584   1</color>
            </diffuse>
            <specular>
              <color sid="specular">0   0   0   1</color>
            </specular>
            <shininess>
              <float sid="shininess">0</float>
            </shininess>
            <transparent>
              <color sid="transparent">1   1   1   1</color>
            </transparent>
            <transparency>
              <float sid="transparency">1</float>
            </transparency>
            <index_of_refraction>
              <float sid="index_of_refraction">1</float>
            </index_of_refraction>
          </phong>
        </technique>
      </profile_COMMON>
    </effect>
  </library_effects>
  <library_materials>
    <material id="DefaultMaterial" name="DefaultMaterial">
      <instance_effect url="#DefaultMaterial-fx"/>
    </material>
    <material id="dirt" name="dirt">
      <instance_effect url="#dirt-fx"/>
    </material>
    <material id="grass" name="grass">
      <instance_effect url="#grass-fx"/>
    </material>
  </library_materials>
  <library_geometries>
    <geometry id="rock_largeA_1" name="rock_largeA" >
      <mesh>
        <source id="rock_largeA_1-positions" name="rock_largeA_1-positions">
          <float_array id="rock_largeA_1-positions-array" count="639"> -0.053278219 0.259775996 -0.286233693 0.33425501 0.144319996 0.0688293427 -0.0772147775 0.144319996 -0.414831609 0.33425501 0.144319996 0.0688293427 -0.053278219 0.259775996 -0.286233693 0.230636001 0.259775996 0.0474922508 0.182456806 0.202048004 0.429032296 -0.209426701 0.144319996 0.449259788 0.215925202 0.144319996 0.507730722 -0.209426701 0.144319996 0.449259788 0.182456806 0.202048004 0.429032296 0.00224197702 0.259775996 0.330161691 -0.209426701 0.144319996 0.449259788 0.00224197702 0.259775996 0.330161691 -0.144504398 0.259775996 0.309989303 0.33425501 0.0757679865 0.0688293427 0.30611369 0 0.225074098 0.260718912 0 0.0536868908 0.30611369 0 0.225074098 0.33425501 0.0757679865 0.0688293427 0.392453313 0.0757679865 0.288556486 0.168421596 0 0.396030009 0.260718912 0 0.0536868908 0.30611369 0 0.225074098 0.260718912 0 0.0536868908 0.168421596 0 0.396030009 -0.0602275096 0 -0.323568493 -0.0602275096 0 -0.323568493 0.168421596 0 0.396030009 -0.163352802 0 0.35042271 -0.0602275096 0 -0.323568493 -0.163352802 0 0.35042271 -0.173208296 0 -0.396030009 -0.173208296 0 -0.396030009 -0.163352802 0 0.35042271 -0.234280095 0 -0.0242839195 -0.234280095 0 -0.0242839195 -0.163352802 0 0.35042271 -0.30611369 0 0.137809306 -0.234280095 0 -0.263141602 -0.173208296 0 -0.396030009 -0.234280095 0 -0.0242839195 -0.173208296 0 -0.396030009 -0.234280095 0 -0.263141602 -0.28579849 0 -0.360054404 0.215925202 0.144319996 0.507730722 -0.209426701 0.0757679865 0.449259788 0.215925202 0.0757679865 0.507730722 -0.209426701 0.0757679865 0.449259788 0.215925202 0.144319996 0.507730722 -0.209426701 0.144319996 0.449259788 0.392453313 0.144319996 0.288556486 0.33425501 0.0757679865 0.0688293427 0.33425501 0.144319996 0.0688293427 0.33425501 0.0757679865 0.0688293427 0.392453313 0.144319996 0.288556486 0.392453313 0.0757679865 0.288556486 -0.392453313 0.0757679865 0.176678598 -0.3003591 0.144319996 -0.0311332308 -0.3003591 0.0757679865 -0.0311332308 -0.3003591 0.144319996 -0.0311332308 -0.392453313 0.0757679865 0.176678598 -0.392453313 0.144319996 0.176678598 -0.209426701 0.0757679865 0.449259788 -0.30611369 0 0.137809306 -0.163352802 0 0.35042271 -0.30611369 0 0.137809306 -0.209426701 0.0757679865 0.449259788 -0.392453313 0.0757679865 0.176678598 -0.173208296 0 -0.396030009 -0.0772147775 0.0757679865 -0.414831609 -0.0602275096 0 -0.323568493 -0.0772147775 0.0757679865 -0.414831609 -0.173208296 0 -0.396030009 -0.222061902 0.0757679865 -0.507730722 0.00224197702 0.259775996 0.330161691 0.182456806 0.202048004 0.429032296 0.209890604 0.259775996 0.274719089 0.270792812 0.259775996 0.199103996 0.215925202 0.144319996 0.507730722 0.392453313 0.144319996 0.288556486 0.215925202 0.144319996 0.507730722 0.270792812 0.259775996 0.199103996 0.209890604 0.259775996 0.274719089 0.215925202 0.144319996 0.507730722 0.209890604 0.259775996 0.274719089 0.182456806 0.202048004 0.429032296 0.33425501 0.144319996 0.0688293427 -0.0772147775 0.0757679865 -0.414831609 -0.0772147775 0.144319996 -0.414831609 -0.0772147775 0.0757679865 -0.414831609 0.33425501 0.144319996 0.0688293427 0.33425501 0.0757679865 0.0688293427 -0.234280095 0 -0.0242839195 -0.392453313 0.0757679865 0.176678598 -0.3003591 0.0757679865 -0.0311332308 -0.392453313 0.0757679865 0.176678598 -0.234280095 0 -0.0242839195 -0.30611369 0 0.137809306 -0.28579849 0 -0.360054404 -0.222061902 0.0757679865 -0.507730722 -0.173208296 0 -0.396030009 -0.222061902 0.0757679865 -0.507730722 -0.28579849 0 -0.360054404 -0.366408288 0.0757679865 -0.461608201 -0.270792812 0.259775996 0.121908203 -0.209426701 0.144319996 0.449259788 -0.144504398 0.259775996 0.309989303 -0.209426701 0.144319996 0.449259788 -0.270792812 0.259775996 0.121908203 -0.392453313 0.144319996 0.176678598 -0.3003591 0.144319996 -0.337361097 -0.252821714 0.259775996 -0.318509698 -0.366408288 0.144319996 -0.461608201 -0.252821714 0.259775996 -0.318509698 -0.3003591 0.144319996 -0.337361097 -0.207247794 0.259775996 -0.232779101 -0.209426701 0.0757679865 0.449259788 0.168421596 0 0.396030009 0.215925202 0.0757679865 0.507730722 0.168421596 0 0.396030009 -0.209426701 0.0757679865 0.449259788 -0.163352802 0 0.35042271 -0.222061902 0.144319996 -0.507730722 -0.252821714 0.259775996 -0.318509698 -0.153222695 0.259775996 -0.350334108 -0.252821714 0.259775996 -0.318509698 -0.222061902 0.144319996 -0.507730722 -0.366408288 0.144319996 -0.461608201 0.33425501 0.0757679865 0.0688293427 -0.0602275096 0 -0.323568493 -0.0772147775 0.0757679865 -0.414831609 -0.0602275096 0 -0.323568493 0.33425501 0.0757679865 0.0688293427 0.260718912 0 0.0536868908 -0.3003591 0.0757679865 -0.337361097 -0.366408288 0.144319996 -0.461608201 -0.366408288 0.0757679865 -0.461608201 -0.366408288 0.144319996 -0.461608201 -0.3003591 0.0757679865 -0.337361097 -0.3003591 0.144319996 -0.337361097 -0.28579849 0 -0.360054404 -0.3003591 0.0757679865 -0.337361097 -0.366408288 0.0757679865 -0.461608201 -0.3003591 0.0757679865 -0.337361097 -0.28579849 0 -0.360054404 -0.234280095 0 -0.263141602 -0.222061902 0.144319996 -0.507730722 -0.0772147775 0.0757679865 -0.414831609 -0.222061902 0.0757679865 -0.507730722 -0.0772147775 0.0757679865 -0.414831609 -0.222061902 0.144319996 -0.507730722 -0.0772147775 0.144319996 -0.414831609 -0.3003591 0.144319996 -0.0311332308 -0.207247794 0.259775996 -0.232779101 -0.3003591 0.144319996 -0.337361097 -0.207247794 0.259775996 -0.232779101 -0.3003591 0.144319996 -0.0311332308 -0.207247794 0.259775996 -0.0214819293 -0.392453313 0.144319996 0.176678598 -0.207247794 0.259775996 -0.0214819293 -0.3003591 0.144319996 -0.0311332308 -0.207247794 0.259775996 -0.0214819293 -0.392453313 0.144319996 0.176678598 -0.270792812 0.259775996 0.121908203 -0.366408288 0.144319996 -0.461608201 -0.222061902 0.0757679865 -0.507730722 -0.366408288 0.0757679865 -0.461608201 -0.222061902 0.0757679865 -0.507730722 -0.366408288 0.144319996 -0.461608201 -0.222061902 0.144319996 -0.507730722 -0.209426701 0.0757679865 0.449259788 -0.392453313 0.144319996 0.176678598 -0.392453313 0.0757679865 0.176678598 -0.392453313 0.144319996 0.176678598 -0.209426701 0.0757679865 0.449259788 -0.209426701 0.144319996 0.449259788 -0.234280095 0 -0.263141602 -0.3003591 0.0757679865 -0.0311332308 -0.3003591 0.0757679865 -0.337361097 -0.3003591 0.0757679865 -0.0311332308 -0.234280095 0 -0.263141602 -0.234280095 0 -0.0242839195 0.215925202 0.144319996 0.507730722 0.392453313 0.0757679865 0.288556486 0.392453313 0.144319996 0.288556486 0.392453313 0.0757679865 0.288556486 0.215925202 0.144319996 0.507730722 0.215925202 0.0757679865 0.507730722 -0.3003591 0.0757679865 -0.0311332308 -0.3003591 0.144319996 -0.337361097 -0.3003591 0.0757679865 -0.337361097 -0.3003591 0.144319996 -0.337361097 -0.3003591 0.0757679865 -0.0311332308 -0.3003591 0.144319996 -0.0311332308 0.270792812 0.259775996 0.199103996 0.33425501 0.144319996 0.0688293427 0.230636001 0.259775996 0.0474922508 0.33425501 0.144319996 0.0688293427 0.270792812 0.259775996 0.199103996 0.392453313 0.144319996 0.288556486 -0.153222695 0.259775996 -0.350334108 -0.0772147775 0.144319996 -0.414831609 -0.222061902 0.144319996 -0.507730722 -0.0772147775 0.144319996 -0.414831609 -0.153222695 0.259775996 -0.350334108 -0.053278219 0.259775996 -0.286233693 0.215925202 0.0757679865 0.507730722 0.30611369 0 0.225074098 0.392453313 0.0757679865 0.288556486 0.30611369 0 0.225074098 0.215925202 0.0757679865 0.507730722 0.168421596 0 0.396030009 </float_array>
          <technique_common>
            <accessor count="213" offset="0" source="#rock_largeA_1-positions-array" stride="3">
              <param name="X" type="float" />
              <param name="Y" type="float" />
              <param name="Z" type="float" />
            </accessor>
          </technique_common>
        </source>
        <source id="rock_largeA_1-normals" name="rock_largeA_1-normals">
          <float_array id="rock_largeA_1-normals-array" count="639"> 0.663469672 0.491136402 -0.564440429 0.663469672 0.491136402 -0.564440429 0.663469672 0.491136402 -0.564440429 0.663469672 0.491136402 -0.564440429 0.663469672 0.491136402 -0.564440429 0.663469672 0.491136402 -0.564440429 -0.0841831863 0.786053479 0.61239928 -0.0841831863 0.786053479 0.61239928 -0.0841831863 0.786053479 0.61239928 -0.0841831863 0.786053479 0.61239928 -0.0841831863 0.786053479 0.61239928 -0.0841831863 0.786053479 0.61239928 -0.0841831863 0.786053479 0.61239928 -0.0841831863 0.786053479 0.61239928 -0.0841831863 0.786053479 0.61239928 0.723165929 -0.6635831 -0.191542193 0.723165929 -0.6635831 -0.191542193 0.723165929 -0.6635831 -0.191542193 0.723165929 -0.6635831 -0.191542193 0.723165929 -0.6635831 -0.191542193 0.723165929 -0.6635831 -0.191542193 0 -1 0 0 -1 0 0 -1 0 0 -1 0 0 -1 0 0 -1 0 0 -1 0 0 -1 0 0 -1 0 0 -1 0 0 -1 0 0 -1 0 0 -1 0 0 -1 0 0 -1 0 0 -1 0 0 -1 0 0 -1 0 0 -1 0 0 -1 0 0 -1 0 0 -1 0 0 -1 0 0 -1 0 -0.136184007 0 0.990683615 -0.136184007 0 0.990683615 -0.136184007 0 0.990683615 -0.136184007 0 0.990683615 -0.136184007 0 0.990683615 -0.136184007 0 0.990683615 0.966666877 0 -0.256037295 0.966666877 0 -0.256037295 0.966666877 0 -0.256037295 0.966666877 0 -0.256037295 0.966666877 0 -0.256037295 0.966666877 0 -0.256037295 -0.91424638 0 -0.405158788 -0.91424638 0 -0.405158788 -0.91424638 0 -0.405158788 -0.91424638 0 -0.405158788 -0.91424638 0 -0.405158788 -0.91424638 0 -0.405158788 -0.523203671 -0.776427805 0.351308793 -0.523203671 -0.776427805 0.351308793 -0.523203671 -0.776427805 0.351308793 -0.523203671 -0.776427805 0.351308793 -0.523203671 -0.776427805 0.351308793 -0.523203671 -0.776427805 0.351308793 0.402706414 -0.666015327 -0.627894223 0.402706414 -0.666015327 -0.627894223 0.402706414 -0.666015327 -0.627894223 0.402706414 -0.666015327 -0.627894223 0.402706414 -0.666015327 -0.627894223 0.402706414 -0.666015327 -0.627894223 0.097142823 0.926386774 0.363827795 0.097142823 0.926386774 0.363827795 0.097142823 0.926386774 0.363827795 0.473322898 0.79412359 0.381225705 0.473322898 0.79412359 0.381225705 0.473322898 0.79412359 0.381225705 0.473322898 0.79412359 0.381225705 0.473322898 0.79412359 0.381225705 0.473322898 0.79412359 0.381225705 0.473322898 0.79412359 0.381225705 0.473322898 0.79412359 0.381225705 0.473322898 0.79412359 0.381225705 0.761661112 0 -0.647975683 0.761661112 0 -0.647975683 0.761661112 0 -0.647975683 0.761661112 0 -0.647975683 0.761661112 0 -0.647975683 0.761661112 0 -0.647975683 -0.702126801 -0.640468717 -0.311155707 -0.702126801 -0.640468717 -0.311155707 -0.702126801 -0.640468717 -0.311155707 -0.702126801 -0.640468717 -0.311155707 -0.702126801 -0.640468717 -0.311155707 -0.702126801 -0.640468717 -0.311155707 -0.161274001 -0.848080277 -0.504728198 -0.161274001 -0.848080277 -0.504728198 -0.161274001 -0.848080277 -0.504728198 -0.161274001 -0.848080277 -0.504728198 -0.161274001 -0.848080277 -0.504728198 -0.161274001 -0.848080277 -0.504728198 -0.547670126 0.751549721 0.367736995 -0.547670126 0.751549721 0.367736995 -0.547670126 0.751549721 0.367736995 -0.547670126 0.751549721 0.367736995 -0.547670126 0.751549721 0.367736995 -0.547670126 0.751549721 0.367736995 -0.870324671 0.168761998 0.462660104 -0.848745286 0.275790304 0.451188713 -0.880447626 0.0758232474 0.46804139 -0.848745286 0.275790304 0.451188713 -0.870324671 0.168761998 0.462660104 -0.848745286 0.275790304 0.451188713 -0.0800946131 -0.80876261 0.582655787 -0.0800946131 -0.80876261 0.582655787 -0.0800946131 -0.80876261 0.582655787 -0.0800946131 -0.80876261 0.582655787 -0.0800946131 -0.80876261 0.582655787 -0.0800946131 -0.80876261 0.582655787 -0.170397401 0.828598499 -0.533281505 -0.170397401 0.828598499 -0.533281505 -0.170397401 0.828598499 -0.533281505 -0.170397401 0.828598499 -0.533281505 -0.170397401 0.828598499 -0.533281505 -0.170397401 0.828598499 -0.533281505 0.650312006 -0.520588517 -0.553246677 0.650312006 -0.520588517 -0.553246677 0.650312006 -0.520588517 -0.553246677 0.650312006 -0.520588517 -0.553246677 0.650312006 -0.520588517 -0.553246677 0.650312006 -0.520588517 -0.553246677 -0.868137419 -0.182641 0.461497486 -0.880447626 0.0758232474 0.46804139 -0.880284905 -0.0782098323 0.467954904 -0.880447626 0.0758232474 0.46804139 -0.868137419 -0.182641 0.461497486 -0.870324671 0.168761998 0.462660104 -0.84332788 -0.296339393 0.448308915 -0.868137419 -0.182641 0.461497486 -0.880284905 -0.0782098323 0.467954904 -0.868137419 -0.182641 0.461497486 -0.84332788 -0.296339393 0.448308915 -0.84332788 -0.296339393 0.448308915 0.539865673 0 -0.841751218 0.539865673 0 -0.841751218 0.539865673 0 -0.841751218 0.539865673 0 -0.841751218 0.539865673 0 -0.841751218 0.539865673 0 -0.841751218 -0.778407395 0.627759278 0 -0.778407395 0.627759278 0 -0.778407395 0.627759278 0 -0.778407395 0.627759278 0 -0.778407395 0.627759278 0 -0.778407395 0.627759278 0 -0.723972082 0.610678494 -0.320836693 -0.723972082 0.610678494 -0.320836693 -0.723972082 0.610678494 -0.320836693 -0.723972082 0.610678494 -0.320836693 -0.723972082 0.610678494 -0.320836693 -0.723972082 0.610678494 -0.320836693 -0.304366589 0 -0.952554882 -0.304366589 0 -0.952554882 -0.304366589 0 -0.952554882 -0.304366589 0 -0.952554882 -0.304366589 0 -0.952554882 -0.304366589 0 -0.952554882 -0.83021009 0 0.557450414 -0.83021009 0 0.557450414 -0.83021009 0 0.557450414 -0.83021009 0 0.557450414 -0.83021009 0 0.557450414 -0.83021009 0 0.557450414 -0.75365001 -0.657275796 0 -0.75365001 -0.657275796 0 -0.75365001 -0.657275796 0 -0.75365001 -0.657275796 0 -0.75365001 -0.657275796 0 -0.75365001 -0.657275796 0 0.778804123 0 0.627267301 0.778804123 0 0.627267301 0.778804123 0 0.627267301 0.778804123 0 0.627267301 0.778804123 0 0.627267301 0.778804123 0 0.627267301 -1 0 0 -1 0 0 -1 0 0 -1 0 0 -1 0 0 -1 0 0 0.747403204 0.63419199 -0.197961807 0.747403204 0.63419199 -0.197961807 0.747403204 0.63419199 -0.197961807 0.747403204 0.63419199 -0.197961807 0.747403204 0.63419199 -0.197961807 0.747403204 0.63419199 -0.197961807 0.416307598 0.636675775 -0.6491009 0.416307598 0.636675775 -0.6491009 0.416307598 0.636675775 -0.6491009 0.416307598 0.636675775 -0.6491009 0.416307598 0.636675775 -0.6491009 0.416307598 0.636675775 -0.6491009 0.449894488 -0.816267908 0.362355709 0.449894488 -0.816267908 0.362355709 0.449894488 -0.816267908 0.362355709 0.449894488 -0.816267908 0.362355709 0.449894488 -0.816267908 0.362355709 0.449894488 -0.816267908 0.362355709 </float_array>
          <technique_common>
            <accessor count="213" offset="0" source="#rock_largeA_1-normals-array" stride="3">
              <param name="X" type="float" />
              <param name="Y" type="float" />
              <param name="Z" type="float" />
            </accessor>
          </technique_common>
        </source>
        <source id="rock_largeA_1-tex0" name="rock_largeA_1-tex0">
          <float_array id="rock_largeA_1-tex0-array" count="426"> 9.94236279 6.1072588 -10.5910902 0.889026582 14.4092302 0.889025688 -10.5910902 0.889026582 9.94236279 6.1072588 -7.30785513 6.10725689 9.41670227 -7.46737194 -5.75959492 -11.1440296 11.1440296 -11.1440296 -5.75959492 -11.1440296 9.41670227 -7.46737194 1.85763001 -3.79071903 -5.75959492 -11.1440296 1.85763001 -3.79071903 -3.97412014 -3.79071903 -5.98885202 10.2126198 -11.6515102 6.22520781 -4.67130518 6.22520685 -11.6515102 6.22520781 -5.98885202 10.2126198 -14.93783 10.2126198 6.63077402 15.5917301 10.2645302 2.113657 12.0517197 8.86118507 10.2645302 2.113657 6.63077402 15.5917301 -2.37116194 -12.7389202 -2.37116194 -12.7389202 6.63077402 15.5917301 -6.43121386 13.7961702 -2.37116194 -12.7389202 -6.43121386 13.7961702 -6.81922388 -15.5917301 -6.81922388 -15.5917301 -6.43121386 13.7961702 -9.22362614 -0.956059813 -9.22362614 -0.956059813 -6.43121386 13.7961702 -12.0517197 5.4255619 -9.22362614 -10.35991 -6.81922388 -15.5917301 -9.22362614 -0.956059813 -6.81922388 -15.5917301 -9.22362614 -10.35991 -11.2519102 -14.1753702 11.1440296 5.68189001 -5.75959206 2.98299193 11.1440296 2.98299193 -5.75959206 2.98299193 11.1440296 5.68189001 -5.75959206 5.68189001 -14.9378204 5.68189001 -5.98885012 2.98299193 -5.98885012 5.68189001 -5.98885012 2.98299193 -14.9378204 5.68189001 -14.9378204 2.98299193 12.6194401 2.98299193 3.67045999 5.68189001 3.67045999 2.98299193 3.67045999 5.68189001 12.6194401 2.98299193 12.6194401 5.68189001 10.0879898 14.8501701 -2.21388006 10.1168098 7.86863613 10.1168098 -2.21388006 10.1168098 10.0879898 14.8501701 -2.838305 14.8501701 14.1575298 6.28911018 11.3759499 10.2880898 8.87323475 6.28910923 11.3759499 10.2880898 14.1575298 6.28911018 18.1506805 10.2880898 -3.26787996 -7.80380201 2.58291197 -13.83916 5.1936512 -7.80380201 0.582541406 -4.28248501 -10.2354298 -11.7616501 0.844261587 -11.7616501 -10.2354298 -11.7616501 0.582541406 -4.28248501 -3.23994899 -4.28248405 -10.2354298 -11.7616501 -3.23994899 -4.28248405 -8.6489315 -8.02206612 -10.5910902 5.68189001 14.4092302 2.98299193 14.4092302 5.68189001 14.4092302 2.98299193 -10.5910902 5.68189001 -10.5910902 2.98299193 2.86295986 5.64894819 12.6194401 9.5331316 3.67046309 9.53313255 12.6194401 9.5331316 2.86295986 5.64894819 9.84316158 5.64894915 6.40355301 14.3558998 2.24369597 19.98559 1.75008392 14.3558998 2.24369597 19.98559 6.40355301 14.3558998 8.20968246 19.98559 -1.95843101 -1.91595292 10.0879898 -8.80646992 6.96071625 -1.91595197 10.0879898 -8.80646992 -1.95843101 -1.91595292 -2.838305 -8.80646896 -17.27845 4.30126905 -15.7446203 9.03017807 -22.8182907 4.30126905 -15.7446203 9.03017807 -17.27845 4.30126905 -11.9221296 9.03017807 -5.75959206 16.8341599 8.69234371 11.7622099 11.1440296 16.8341599 8.69234371 11.7622099 -5.75959206 16.8341599 -4.4924798 11.7622099 2.24370193 -14.80124 5.66468525 -6.68198299 1.54815602 -6.68198109 5.66468525 -6.68198299 2.24370193 -14.80124 8.20968819 -14.80124 -10.5910902 6.85075998 11.2391901 3.35700893 14.4092302 6.85076094 11.2391901 3.35700893 -10.5910902 6.85075998 -8.26105309 3.35700893 -17.27845 2.98299193 -22.8182907 5.68189001 -22.8182907 2.98299193 -22.8182907 5.68189001 -17.27845 2.98299193 -17.27845 5.68189001 -17.7982693 0.97243762 -17.27845 4.09571886 -22.8182907 4.09571886 -17.27845 4.09571886 -17.7982693 0.97243762 -13.47719 0.972437322 18.1506805 5.68189001 11.3759403 2.98299193 18.1506805 2.98299193 11.3759403 2.98299193 18.1506805 5.68189001 11.3759403 5.68189001 -1.22571802 -3.00053096 -9.16453266 2.83896995 -13.28193 -3.00053096 -9.16453266 2.83896995 -1.22571802 -3.00053096 -0.845745206 2.83896995 12.6194401 -2.40601492 2.53261805 3.33414698 3.67046213 -2.40601492 2.53261805 3.33414698 12.6194401 -2.40601492 8.70741177 3.33414602 8.20968056 5.68189001 2.24369407 2.98299193 8.20968056 2.98299193 2.24369407 2.98299193 8.20968056 5.68189001 2.24369407 5.68189001 10.0880003 2.98299193 -2.83830309 5.68189001 -2.83830309 2.98299193 -2.83830309 5.68189001 10.0880003 2.98299193 10.0880003 5.68189001 -10.35991 6.0624671 -1.22571802 10.0205297 -13.28193 10.0205297 -1.22571802 10.0205297 -10.35991 6.0624671 -0.956059813 6.0624671 -10.2354298 5.68189001 0.844256878 2.98299193 0.844256878 5.68189001 0.844256878 2.98299193 -10.2354298 5.68189001 -10.2354298 2.98299193 -1.22571802 2.98299193 -13.28193 5.68189001 -13.28193 2.98299193 -13.28193 5.68189001 -1.22571802 2.98299193 -1.22571802 5.68189001 -10.3071003 2.64457107 -5.98885107 -3.2344451 -4.13230801 2.64457107 -5.98885107 -3.2344451 -10.3071003 2.64457107 -14.93783 -3.2344451 12.5239697 2.56831193 11.3759499 -3.32628608 18.1506805 -3.32628608 11.3759499 -3.32628608 12.5239697 2.56831193 7.84940004 2.56831312 -10.2354298 17.3623199 0.658523977 12.1985197 0.844259679 17.3623199 0.658523977 12.1985197 -10.2354298 17.3623199 -7.983634 12.1985197 </float_array>
          <technique_common>
            <accessor count="213" offset="0" source="#rock_largeA_1-tex0-array" stride="2">
              <param name="S" type="float" />
              <param name="T" type="float" />
            </accessor>
          </technique_common>
        </source>
        <vertices id="rock_largeA_1-vertices">
          <input semantic="POSITION" source="#rock_largeA_1-positions" />
        </vertices>
        <polylist count="71" material="defaultMaterial">
          <input offset="0" semantic="VERTEX" source="#rock_largeA_1-vertices" />
          <input offset="0" semantic="NORMAL" source="#rock_largeA_1-normals" />
          <input offset="0" semantic="TEXCOORD" source="#rock_largeA_1-tex0" set="0" />
          <vcount>3 3 3 3 3 3 3 3 3 3 3 3 3 3 3 3 3 3 3 3 3 3 3 3 3 3 3 3 3 3 3 3 3 3 3 3 3 3 3 3 3 3 3 3 3 3 3 3 3 3 3 3 3 3 3 3 3 3 3 3 3 3 3 3 3 3 3 3 3 3 3 </vcount>
          <p>0 1 2 3 4 5 6 7 8 9 10 11 12 13 14 15 16 17 18 19 20 21 22 23 24 25 26 27 28 29 30 31 32 33 34 35 36 37 38 39 40 41 42 43 44 45 46 47 48 49 50 51 52 53 54 55 56 57 58 59 60 61 62 63 64 65 66 67 68 69 70 71 72 73 74 75 76 77 78 79 80 81 82 83 84 85 86 87 88 89 90 91 92 93 94 95 96 97 98 99 100 101 102 103 104 105 106 107 108 109 110 111 112 113 114 115 116 117 118 119 120 121 122 123 124 125 126 127 128 129 130 131 132 133 134 135 136 137 138 139 140 141 142 143 144 145 146 147 148 149 150 151 152 153 154 155 156 157 158 159 160 161 162 163 164 165 166 167 168 169 170 171 172 173 174 175 176 177 178 179 180 181 182 183 184 185 186 187 188 189 190 191 192 193 194 195 196 197 198 199 200 201 202 203 204 205 206 207 208 209 210 211 212 </p>
        </polylist>
      </mesh>
    </geometry>
    <geometry id="rock_largeA_2" name="rock_largeA" >
      <mesh>
        <source id="rock_largeA_2-positions" name="rock_largeA_2-positions">
          <float_array id="rock_largeA_2-positions-array" count="81"> -0.252821714 0.259775996 -0.318509698 -0.207247794 0.259775996 -0.232779101 -0.153222695 0.259775996 -0.350334108 -0.207247794 0.259775996 -0.0214819293 -0.153222695 0.259775996 -0.350334108 -0.207247794 0.259775996 -0.232779101 -0.144504398 0.259775996 0.309989303 -0.153222695 0.259775996 -0.350334108 -0.207247794 0.259775996 -0.0214819293 -0.144504398 0.259775996 0.309989303 -0.053278219 0.259775996 -0.286233693 -0.153222695 0.259775996 -0.350334108 0.00224197702 0.259775996 0.330161691 -0.053278219 0.259775996 -0.286233693 -0.144504398 0.259775996 0.309989303 0.209890604 0.259775996 0.274719089 -0.053278219 0.259775996 -0.286233693 0.00224197702 0.259775996 0.330161691 0.209890604 0.259775996 0.274719089 0.230636001 0.259775996 0.0474922508 -0.053278219 0.259775996 -0.286233693 0.230636001 0.259775996 0.0474922508 0.209890604 0.259775996 0.274719089 0.270792812 0.259775996 0.199103996 -0.144504398 0.259775996 0.309989303 -0.207247794 0.259775996 -0.0214819293 -0.270792812 0.259775996 0.121908203 </float_array>
          <technique_common>
            <accessor count="27" offset="0" source="#rock_largeA_2-positions-array" stride="3">
              <param name="X" type="float" />
              <param name="Y" type="float" />
              <param name="Z" type="float" />
            </accessor>
          </technique_common>
        </source>
        <source id="rock_largeA_2-normals" name="rock_largeA_2-normals">
          <float_array id="rock_largeA_2-normals-array" count="81"> 0 1 0 0 1 0 0 1 0 0 1 0 0 1 0 0 1 0 0 1 0 0 1 0 0 1 0 0 1 0 0 1 0 0 1 0 0 1 0 0 1 0 0 1 0 0 1 0 0 1 0 0 1 0 0 1 0 0 1 0 0 1 0 0 1 0 0 1 0 0 1 0 0 1 0 0 1 0 0 1 0 </float_array>
          <technique_common>
            <accessor count="27" offset="0" source="#rock_largeA_2-normals-array" stride="3">
              <param name="X" type="float" />
              <param name="Y" type="float" />
              <param name="Z" type="float" />
            </accessor>
          </technique_common>
        </source>
        <source id="rock_largeA_2-tex0" name="rock_largeA_2-tex0">
          <float_array id="rock_largeA_2-tex0-array" count="54"> 9.95361137 -12.5397501 8.15936184 -9.16453266 6.03239012 -13.7926798 8.15936184 -0.845745206 6.03239012 -13.7926798 8.15936184 -9.16453266 5.68915081 12.2042999 6.03239012 -13.7926798 8.15936184 -0.845745206 5.68915081 12.2042999 2.09756804 -11.2690401 6.03239012 -13.7926798 -0.0882667974 12.9984903 2.09756804 -11.2690401 5.68915081 12.2042999 -8.26341057 10.8157101 2.09756804 -11.2690401 -0.0882667974 12.9984903 -8.26341057 10.8157101 -9.08015728 1.86977398 2.09756804 -11.2690401 -9.08015728 1.86977398 -8.26341057 10.8157101 -10.6611404 7.83874083 5.68915081 12.2042999 8.15936184 -0.845745206 10.6611404 4.79953575 </float_array>
          <technique_common>
            <accessor count="27" offset="0" source="#rock_largeA_2-tex0-array" stride="2">
              <param name="S" type="float" />
              <param name="T" type="float" />
            </accessor>
          </technique_common>
        </source>
        <vertices id="rock_largeA_2-vertices">
          <input semantic="POSITION" source="#rock_largeA_2-positions" />
        </vertices>
        <polylist count="9" material="defaultMaterial">
          <input offset="0" semantic="VERTEX" source="#rock_largeA_2-vertices" />
          <input offset="0" semantic="NORMAL" source="#rock_largeA_2-normals" />
          <input offset="0" semantic="TEXCOORD" source="#rock_largeA_2-tex0" set="0" />
          <vcount>3 3 3 3 3 3 3 3 3 </vcount>
          <p>0 1 2 3 4 5 6 7 8 9 10 11 12 13 14 15 16 17 18 19 20 21 22 23 24 25 26 </p>
        </polylist>
      </mesh>
    </geometry>
  </library_geometries>
  <library_controllers>
  </library_controllers>
  <library_visual_scenes>
    <visual_scene id="rock_largeA.obj" name="rock_largeA.obj">
      <node id="rock_largeA" name="rock_largeA" type="NODE">
        <matrix sid="matrix">1 0 0 0 0 1 0 0 0 0 1 0 0 0 0 1</matrix>
        <instance_geometry url="#rock_largeA_1">
          <bind_material>
            <technique_common>
              <instance_material symbol="defaultMaterial" target="#dirt">
                <bind_vertex_input semantic="CHANNEL0" input_semantic="TEXCOORD" input_set="0"/>
              </instance_material>
            </technique_common>
          </bind_material>
        </instance_geometry>
        <instance_geometry url="#rock_largeA_2">
          <bind_material>
            <technique_common>
              <instance_material symbol="defaultMaterial" target="#grass">
                <bind_vertex_input semantic="CHANNEL0" input_semantic="TEXCOORD" input_set="0"/>
              </instance_material>
            </technique_common>
          </bind_material>
        </instance_geometry>
      </node>
    </visual_scene>
  </library_visual_scenes>
  <scene>
    <instance_visual_scene url="#rock_largeA.obj" />
  </scene>
</COLLADA>
